<?xml version="1.0" encoding="UTF-8" standalone="no"?>
<svg width="117px" height="50px" viewBox="0 0 117 50" version="1.1" xmlns="http://www.w3.org/2000/svg" xmlns:xlink="http://www.w3.org/1999/xlink" xmlns:sketch="http://www.bohemiancoding.com/sketch/ns">
    <!-- Generator: Sketch 3.2.2 (9983) - http://www.bohemiancoding.com/sketch -->
    <title>Imported Layers</title>
    <desc>Created with Sketch.</desc>
    <defs></defs>
    <g id="Page-1" stroke="none" stroke-width="1" fill="none" fill-rule="evenodd" sketch:type="MSPage">
        <g id="13_Švenk_404" sketch:type="MSArtboardGroup" transform="translate(-592.000000, -418.000000)" fill="#DA3228">
            <g id="Group" sketch:type="MSLayerGroup" transform="translate(419.000000, 273.000000)">
                <g id="Imported-Layers" transform="translate(173.000000, 145.000000)" sketch:type="MSShapeGroup">
                    <path d="M89.564,25.161 L89.564,45.88 C89.564,46.15 89.562,46.42 89.578,46.69 C89.635,47.634 90.21,48.227 91.145,48.294 C91.568,48.324 91.992,48.342 92.416,48.342 C100.267,48.345 108.119,48.343 115.971,48.347 C116.393,48.347 116.967,48.215 116.977,48.884 C116.987,49.559 116.417,49.437 115.989,49.437 C107.925,49.44 99.862,49.439 91.798,49.438 C91.49,49.438 91.176,49.452 90.874,49.405 C89.361,49.167 88.667,48.431 88.483,46.888 C88.446,46.582 88.436,46.273 88.436,45.964 C88.434,32.075 88.435,18.186 88.435,4.295 C88.435,1.721 89.335,0.825 91.918,0.825 C99.152,0.825 106.387,0.824 113.621,0.827 C113.948,0.827 114.281,0.818 114.6,0.874 C116.229,1.155 116.948,2.01 116.988,3.823 C117.029,5.673 117.033,7.527 116.988,9.378 C116.937,11.432 115.947,12.334 113.827,12.337 C109.544,12.344 105.261,12.339 100.979,12.339 C99.982,12.34 99.982,12.341 99.982,13.326 C99.982,14.966 99.981,16.606 99.982,18.245 C99.983,18.999 99.996,19.011 100.773,19.011 C104.302,19.013 107.833,19.012 111.363,19.012 C111.499,19.012 111.634,19.011 111.769,19.012 C113.893,19.04 114.891,20.02 114.911,22.135 C114.927,23.891 114.924,25.647 114.912,27.402 C114.897,29.548 113.896,30.549 111.743,30.555 C108.135,30.566 104.528,30.558 100.92,30.558 C99.982,30.558 99.982,30.558 99.982,31.524 C99.982,33.376 99.981,35.228 99.982,37.079 C99.982,37.888 100.012,37.924 100.831,37.924 C105.075,37.927 109.319,37.925 113.563,37.926 C116.11,37.926 116.998,38.817 116.998,41.373 C116.998,42.647 116.996,43.92 116.999,45.193 C116.999,45.59 116.948,45.956 116.438,45.959 C115.93,45.962 115.868,45.602 115.868,45.202 C115.871,43.852 115.875,42.502 115.868,41.151 C115.859,39.591 115.289,39.022 113.738,39.021 C109.378,39.019 105.019,39.021 100.659,39.021 C99.295,39.02 98.854,38.582 98.854,37.228 C98.852,35.202 98.851,33.177 98.854,31.151 C98.856,29.911 99.331,29.431 100.567,29.431 C104.156,29.428 107.744,29.43 111.332,29.429 C111.602,29.429 111.872,29.431 112.142,29.415 C113.101,29.358 113.75,28.757 113.764,27.804 C113.794,25.798 113.795,23.791 113.765,21.786 C113.75,20.764 113.08,20.158 111.988,20.154 C108.245,20.137 104.503,20.142 100.76,20.14 C99.257,20.139 98.853,19.73 98.853,18.206 C98.853,16.469 98.852,14.733 98.854,12.997 C98.855,11.705 99.309,11.244 100.583,11.243 C104.942,11.242 109.303,11.243 113.662,11.243 C115.307,11.242 115.863,10.699 115.868,9.074 C115.874,7.376 115.877,5.678 115.867,3.981 C115.858,2.572 115.392,2.073 114,1.953 C113.751,1.931 113.5,1.922 113.25,1.922 C106.228,1.921 99.206,1.92 92.183,1.923 C91.875,1.923 91.568,1.944 91.26,1.967 C90.141,2.046 89.581,2.609 89.576,3.748 C89.56,8.127 89.566,12.506 89.564,16.885 C89.563,19.644 89.564,22.403 89.564,25.161" id="Fill-1"></path>
                    <path d="M66.708,34.544 C66.836,33.976 66.977,33.41 67.091,32.839 C68.647,25.091 70.196,17.341 71.752,9.593 C72.166,7.54 72.571,5.485 73.029,3.442 C73.397,1.796 74.483,0.901 76.19,0.846 C77.79,0.795 79.392,0.83 80.992,0.825 C81.385,0.824 81.611,0.974 81.609,1.403 C81.606,1.827 81.346,1.916 81,1.919 C79.516,1.934 78.03,1.918 76.548,1.974 C75.116,2.028 74.39,2.6 74.065,4.016 C73.56,6.206 73.126,8.412 72.681,10.615 C71.65,15.703 70.631,20.793 69.607,25.882 C69.012,28.841 68.416,31.802 67.814,34.76 C67.752,35.06 67.664,35.358 67.559,35.646 C67.391,36.103 67.074,36.368 66.558,36.365 C66.042,36.361 65.694,36.094 65.569,35.631 C65.323,34.723 65.117,33.803 64.931,32.88 C63.67,26.643 62.417,20.403 61.163,14.165 C60.526,11 59.895,7.833 59.247,4.67 C59.004,3.486 58.641,2.368 57.254,2.051 C56.993,1.992 56.721,1.958 56.454,1.958 C54.662,1.958 52.867,1.933 51.077,1.991 C49.964,2.027 49.425,2.709 49.641,3.818 C50.123,6.289 50.664,8.749 51.195,11.209 C52.755,18.424 54.322,25.638 55.886,32.852 C56.766,36.909 57.606,40.977 58.54,45.022 C59.133,47.593 60.016,48.293 62.638,48.329 C65.55,48.37 68.464,48.328 71.375,48.277 C72.923,48.25 73.978,47.377 74.408,45.672 C75.004,43.306 75.504,40.915 76.018,38.529 C77.355,32.328 78.676,26.123 80.008,19.921 C81.304,13.888 82.606,7.856 83.904,1.824 C84.074,1.034 84.335,0.708 84.77,0.849 C85.435,1.064 85.168,1.583 85.076,2.009 C83.427,9.656 81.769,17.302 80.118,24.95 C78.674,31.638 77.244,38.33 75.785,45.016 C75.618,45.78 75.37,46.542 75.044,47.251 C74.319,48.828 72.901,49.378 71.306,49.408 C68.144,49.467 64.978,49.476 61.816,49.409 C59.548,49.36 58.231,48.291 57.643,46.035 C57.028,43.674 56.536,41.282 56.017,38.897 C54.601,32.399 53.197,25.897 51.791,19.397 C50.706,14.381 49.621,9.365 48.554,4.344 C48.46,3.9 48.457,3.42 48.501,2.964 C48.611,1.844 49.236,1.03 50.332,0.981 C52.713,0.874 55.105,0.85 57.484,0.957 C58.901,1.02 59.776,1.986 60.078,3.366 C60.598,5.749 61.08,8.14 61.563,10.531 C62.903,17.166 64.237,23.801 65.573,30.436 C65.82,31.66 66.059,32.887 66.313,34.109 C66.346,34.268 66.451,34.411 66.523,34.562 C66.584,34.556 66.646,34.55 66.708,34.544" id="Fill-2"></path>
                    <path d="M0.1,25.089 C0.1,18.126 0.099,11.162 0.102,4.199 C0.102,3.871 0.09,3.538 0.143,3.218 C0.403,1.638 1.313,0.85 2.97,0.834 C5.516,0.81 8.063,0.826 10.609,0.825 C15.508,0.825 20.408,0.825 25.308,0.826 C25.578,0.826 25.85,0.814 26.118,0.844 C27.649,1.016 28.524,1.839 28.575,3.394 C28.645,5.589 28.633,7.79 28.565,9.985 C28.524,11.294 27.563,12.183 26.254,12.286 C25.602,12.338 24.945,12.336 24.29,12.337 C20.374,12.341 16.458,12.338 12.542,12.339 C11.669,12.34 11.615,12.392 11.614,13.245 C11.612,15.347 11.611,17.449 11.615,19.553 C11.617,20.36 11.662,20.4 12.462,20.4 C16.03,20.401 19.599,20.4 23.168,20.403 C23.475,20.403 23.786,20.417 24.09,20.455 C25.615,20.643 26.443,21.435 26.492,22.982 C26.56,25.158 26.547,27.339 26.484,29.516 C26.446,30.841 25.607,31.659 24.283,31.86 C23.923,31.915 23.555,31.943 23.191,31.944 C19.622,31.949 16.053,31.947 12.485,31.948 C11.649,31.948 11.615,31.978 11.614,32.829 C11.612,38.018 11.614,43.207 11.613,48.396 C11.613,48.589 11.665,48.814 11.584,48.966 C11.483,49.154 11.257,49.415 11.105,49.403 C10.903,49.388 10.68,49.167 10.543,48.978 C10.46,48.862 10.518,48.642 10.518,48.468 C10.518,43.182 10.517,37.898 10.518,32.612 C10.518,31.256 10.958,30.82 12.323,30.82 C15.873,30.819 19.422,30.82 22.972,30.819 C23.223,30.819 23.474,30.817 23.724,30.806 C24.756,30.76 25.406,30.187 25.427,29.152 C25.469,27.166 25.47,25.178 25.427,23.192 C25.405,22.138 24.745,21.549 23.662,21.545 C19.901,21.526 16.139,21.532 12.378,21.529 C10.937,21.528 10.518,21.111 10.518,19.674 C10.517,17.455 10.517,15.237 10.518,13.019 C10.518,11.676 10.944,11.244 12.271,11.244 C16.591,11.243 20.912,11.244 25.233,11.243 C25.445,11.243 25.658,11.247 25.869,11.229 C26.891,11.134 27.487,10.59 27.51,9.562 C27.553,7.577 27.554,5.588 27.511,3.603 C27.488,2.584 26.872,2.036 25.853,1.968 C25.45,1.941 25.045,1.923 24.641,1.923 C17.715,1.92 10.79,1.919 3.865,1.923 C3.48,1.923 3.094,1.942 2.712,1.978 C1.877,2.056 1.333,2.6 1.252,3.432 C1.217,3.797 1.198,4.163 1.198,4.529 C1.195,18.264 1.195,31.998 1.195,45.732 C1.195,47.874 1.666,48.343 3.806,48.344 C5.001,48.344 6.197,48.347 7.393,48.343 C7.797,48.34 8.15,48.395 8.129,48.914 C8.111,49.387 7.782,49.444 7.398,49.441 C6.068,49.434 4.737,49.44 3.405,49.439 C1.047,49.436 0.101,48.499 0.101,46.154 C0.099,39.133 0.1,32.111 0.1,25.089" id="Fill-3"></path>
                    <path d="M44.678,26.092 C44.678,33.519 44.68,40.946 44.671,48.373 C44.671,48.795 44.866,49.422 44.133,49.42 C43.422,49.419 43.573,48.802 43.573,48.373 C43.565,33.711 43.566,19.05 43.566,4.39 C43.566,4.177 43.574,3.964 43.562,3.753 C43.501,2.57 43,2.003 41.816,1.975 C39.89,1.93 37.961,1.93 36.035,1.975 C34.858,2.003 34.342,2.576 34.263,3.743 C34.253,3.897 34.259,4.052 34.259,4.206 C34.259,18.154 34.259,32.101 34.263,46.048 C34.263,46.354 34.288,46.666 34.345,46.965 C34.504,47.788 35.016,48.265 35.852,48.289 C37.374,48.333 38.898,48.323 40.421,48.351 C40.639,48.355 40.911,48.389 41.055,48.521 C41.174,48.63 41.207,48.926 41.153,49.1 C41.11,49.241 40.88,49.419 40.735,49.417 C38.906,49.405 37.071,49.443 35.25,49.3 C34.058,49.207 33.325,48.267 33.212,47.064 C33.17,46.623 33.15,46.178 33.15,45.736 C33.148,32.001 33.147,18.266 33.151,4.531 C33.152,4.031 33.154,3.523 33.235,3.032 C33.455,1.699 34.385,0.88 35.812,0.849 C37.875,0.805 39.94,0.801 42.003,0.848 C43.649,0.886 44.649,1.919 44.655,3.58 C44.678,10.274 44.673,16.967 44.678,23.661 L44.678,26.092" id="Fill-4"></path>
                </g>
            </g>
        </g>
    </g>
</svg>