<?xml version="1.0" encoding="utf-8"?>
<!-- Generator: Adobe Illustrator 19.0.1, SVG Export Plug-In . SVG Version: 6.00 Build 0)  -->
<svg version="1.1" id="Layer_1" xmlns="http://www.w3.org/2000/svg" xmlns:xlink="http://www.w3.org/1999/xlink" x="0px" y="0px"
	 viewBox="0 0 1000 1000" enable-background="new 0 0 1000 1000" xml:space="preserve">
<g>
	<g>
		<g>
			<g>
				<g>
					<path fill="#576872" d="M743.8,737.8H241.5c-109.9,0-206.4-84.2-229.3-200.2c-15.5-77.3,8.5-180.9,96-242.1
						c-1.2-45.6,12.5-90.3,39.2-126.9c43.3-60,116-97.3,189.6-97.3c28.1,0,54.7,4.9,79.3,14.4C462.7,35.3,525.5,7.8,594.5,7.8
						c79.2,0,156.3,36.4,206,97.5c32.2,39.5,51.6,92,53.9,145.4c111.4,58,148.3,173.8,135.1,264.8
						C970.7,644.3,867.3,737.8,743.8,737.8z M336.9,103.7c-63.4,0-126,32.1-163.3,83.9c-24.1,33-35.6,73.9-32.6,115l0.7,9.6
						l-8.1,5.2c-81,52.2-103.4,145-89.6,213.8c20,100.9,103,174.1,197.5,174.1h502.3c107.3,0,197.1-81.8,213.6-194.6
						c11.9-81.6-22.5-186-125.9-235.3l-9.2-4.4l0-10.2c-0.2-49.6-17.3-98.8-46.9-135.1c-43.7-53.6-111.3-85.5-180.9-85.5
						c-63.2,0-120.6,26.8-161.4,75.4l-8,9.5l-11.2-5.2C390.5,109.2,364.6,103.7,336.9,103.7z"/>
				</g>
			</g>
			<g>
				<g>
					<path fill="#576872" d="M711,543.5c0,5.8-2.3,11-6.8,15.4c-4.5,4.5-9.9,6.7-16.1,6.7c-4.1,0-7.8-1-11.2-2.9
						c-3.4-1.9-6.1-4.5-8.1-8l-73.5-121h-65.4v-43.9h89.6c5,0,10-0.6,15.1-1.7c5.2-1.1,9.8-3.4,14.1-6.7c4.2-3.3,7.7-7.8,10.3-13.5
						c2.7-5.6,4-12.7,4-21.5c0-13-3.7-23.8-11.2-32.5c-7.5-8.7-18.3-13-32.4-13h-89.6l-0.1-43.8h89.8c26.6,0,48.3,8.1,64.7,24.3
						c17.1,16.8,25.5,38.5,25.5,65.1c0,26.6-8.3,47.9-25.1,63.8c-10.3,9.5-23,16.4-38.3,20.4l61.2,101.1
						C709.8,535.6,711,539.5,711,543.5z M460.4,542.7c0,6.3,2.3,11.8,7,16.2c4.7,4.5,10.3,6.7,16.8,6.7c6.5,0,11.9-2.3,16.3-6.7
						c4.4-4.5,6.6-9.9,6.6-16.2V275.8c0-6.4-2.3-11.8-6.8-16.3c-4.6-4.5-10.1-6.7-16.5-6.7s-12,2.2-16.5,6.7
						c-4.5,4.5-6.8,9.9-6.8,16.3v113.6H335.3V275.8c0-6.4-2.4-11.8-7-16.3c-4.7-4.5-10.2-6.7-16.3-6.7c-6.5,0-12,2.2-16.5,6.7
						c-4.5,4.5-6.8,9.9-6.8,16.3v266.9c0,6.3,2.4,11.8,7,16.2c4.7,4.5,10.3,6.7,16.7,6.7c6.2,0,11.5-2.3,16.1-6.7
						c4.5-4.5,6.8-9.9,6.8-16.2V425.5h125.1V542.7z"/>
				</g>
			</g>
		</g>
	</g>
	<g>
		<path fill="#576872" d="M142.5,897.4h20.6v37H201v-37h20.6v93.5H201v-37.5h-37.9v37.5h-20.6V897.4z"/>
		<path fill="#576872" d="M244,897.4h42.7c11.9,0,21.1,3.3,27.3,9.5c5.2,5.2,8,12.6,8,21.4v0.3c0,15.1-8.1,24.6-20,29l22.8,33.4h-24
			l-20-29.9h-16.2v29.9H244V897.4z M285.4,942.8c10,0,15.8-5.3,15.8-13.2v-0.3c0-8.8-6.1-13.4-16.2-13.4h-20.4v26.9H285.4z"/>
		<path fill="#576872" d="M376.6,944.4v-0.3c0-26.6,20-48.4,48.8-48.4c17.6,0,28.2,5.9,36.9,14.4l-13.1,15.1
			c-7.2-6.5-14.6-10.6-23.9-10.6c-15.8,0-27.1,13.1-27.1,29.1v0.3c0,16,11.1,29.4,27.1,29.4c10.7,0,17.2-4.3,24.6-11l13.1,13.2
			c-9.6,10.3-20.3,16.7-38.3,16.7C397,992.5,376.6,971.3,376.6,944.4z"/>
		<path fill="#576872" d="M479.3,897.4h20.6v74.8h46.6v18.7h-67.2V897.4z"/>
		<path fill="#576872" d="M552.5,944.4v-0.3c0-26.6,21-48.4,49.8-48.4c28.9,0,49.6,21.5,49.6,48.1v0.3c0,26.6-21,48.4-49.8,48.4
			C573.2,992.5,552.5,971,552.5,944.4z M630.4,944.4v-0.3c0-16-11.8-29.4-28.3-29.4c-16.6,0-28.1,13.1-28.1,29.1v0.3
			c0,16,11.8,29.4,28.3,29.4C618.9,973.5,630.4,960.5,630.4,944.4z"/>
		<path fill="#576872" d="M668.8,950.8v-53.4h20.6v52.9c0,15.2,7.6,23.1,20.2,23.1c12.6,0,20.2-7.6,20.2-22.4v-53.6h20.6v52.8
			c0,28.3-15.9,42.2-41,42.2C684.1,992.4,668.8,978.4,668.8,950.8z"/>
		<path fill="#576872" d="M771.2,897.4h36.5c29.4,0,49.7,20.2,49.7,46.5v0.3c0,26.3-20.3,46.8-49.7,46.8h-36.5V897.4z M807.7,972.3
			c16.8,0,28.2-11.4,28.2-27.9v-0.3c0-16.6-11.4-28.2-28.2-28.2h-15.9v56.4H807.7z"/>
	</g>
</g>
</svg>
