<?xml version="1.0" encoding="UTF-8" standalone="no"?>
<!-- Created with Inkscape (http://www.inkscape.org/) -->

<svg
   xmlns:dc="http://purl.org/dc/elements/1.1/"
   xmlns:cc="http://creativecommons.org/ns#"
   xmlns:rdf="http://www.w3.org/1999/02/22-rdf-syntax-ns#"
   xmlns:svg="http://www.w3.org/2000/svg"
   xmlns="http://www.w3.org/2000/svg"
   version="1.1"
   width="345.30405"
   height="94.400002"
   id="svg2">
  <defs
     id="defs4" />
  <metadata
     id="metadata7">
    <rdf:RDF>
      <cc:Work
         rdf:about="">
        <dc:format>image/svg+xml</dc:format>
        <dc:type
           rdf:resource="http://purl.org/dc/dcmitype/StillImage" />
        <dc:title></dc:title>
      </cc:Work>
    </rdf:RDF>
  </metadata>
  <g
     transform="translate(1492.652,20.5521)"
     id="layer1">
    <g
       transform="translate(-1816.052,-256.8521)"
       id="g3024">
      <path
         d="m 409.5,261 c -3.9,0 -7.4,0.7 -10.3,2.1 -3,1.4 -6,3.8 -9.2,7.1 l 1.2,-8.1 h -17.9 l -7.1,49.6 h 19.3 l 3.4,-23.8 c 0.6,-4.5 1.8,-7.7 3.5,-9.4 1.7,-1.7 3.7,-2.6 6.1,-2.6 2.1,0 3.7,0.7 4.6,1.9 1,1.3 1.3,3.5 0.8,6.6 l -3.9,27.3 h 19.4 l 4.5,-31.5 c 1,-6.6 0.1,-11.4 -2.4,-14.5 -2.7,-3.1 -6.6,-4.7 -12,-4.7 z"
         id="path3026"
         style="fill:#ec6608" />
      <path
         d="M 465.2,262.2 H 456 c 0.3,-2.2 0.6,-3.7 0.9,-4.4 0.5,-1.2 1.2,-2.2 2,-2.7 0.8,-0.6 2.1,-0.9 3.9,-0.9 1.4,0 3.3,0.2 5.5,0.6 l 3.8,-11.5 c -6.3,-0.8 -11.2,-1.2 -14.6,-1.2 -4.2,0 -7.5,0.5 -9.8,1.4 -2.3,0.9 -4.2,2.2 -5.6,3.7 -1.4,1.5 -2.6,3.5 -3.4,5.9 -0.8,2.4 -1.3,4.7 -1.6,6.7 l -0.3,2.3 h -7.2 l -2,13.9 h 7.2 l -5.1,35.7 H 449 l 5.1,-35.7 h 9.2 l 1.9,-13.8 z"
         id="path3028"
         style="fill:#ec6608" />
      <path
         d="m 495.4,261 c -8.8,0 -16.2,2.5 -22.1,7.4 -5.9,4.9 -9.4,11.1 -10.5,18.7 -1.2,8.1 0.9,14.7 6.3,19.7 4.4,4.1 10.7,6.1 18.7,6.1 9.1,0 16.5,-2.4 22.3,-7.3 5.8,-4.9 9.3,-11.1 10.4,-18.8 1,-6.8 -0.3,-12.5 -3.7,-17.1 -4.1,-5.8 -11.3,-8.7 -21.4,-8.7 z m 6,25.9 c -0.7,4.6 -2,8 -4.1,10 -2.1,2.1 -4.5,3.1 -7.3,3.1 -2.8,0 -4.9,-1.1 -6.4,-3.2 -1.5,-2.1 -1.9,-5.4 -1.3,-9.8 0.6,-4.4 2,-7.6 4.2,-9.7 2.1,-2.1 4.6,-3.2 7.4,-3.2 2.7,0 4.7,1 6.2,3.2 1.4,2.1 1.9,5.3 1.3,9.6 z"
         id="path3030"
         style="fill:#ec6608" />
      <path
         d="m 564.1,261 c -3,0 -5.7,0.5 -8.3,1.5 -2.6,1 -5,2.5 -7.2,4.5 l 3.4,-23.7 h -19.5 l -9.8,68.5 h 18 l 1.1,-7.3 c 2,3.1 4,5.2 6,6.3 2.6,1.4 5.6,2.1 9,2.1 3.9,0 7.7,-1 11.2,-3.1 3.5,-2 6.5,-5.1 8.9,-9.3 2.4,-4.1 4,-8.9 4.8,-14.3 1.2,-8.1 0.1,-14.4 -3.3,-18.7 -3.4,-4.3 -8.2,-6.5 -14.3,-6.5 z m -1.7,25.6 c -0.6,4.5 -1.9,7.6 -3.7,9.5 -1.8,1.9 -3.9,2.8 -6.2,2.8 -2.5,0 -4.4,-1 -5.8,-2.9 -1.3,-1.9 -1.7,-5 -1.1,-9.3 0.6,-3.9 1.8,-6.8 3.7,-8.7 1.9,-1.9 4.2,-2.9 6.8,-2.9 2.2,0 3.9,0.9 5.2,2.8 1.3,1.9 1.6,4.8 1.1,8.7 z"
         id="path3032"
         style="fill:#ec6608" />
      <polygon
         points="602.8,311.8 609.9,262.2 590.6,262.2 583.5,311.8 "
         id="polygon3034"
         style="fill:#ec6608" />
      <path
         d="m 345.3,260.6 0,0 1.4,-9.5 c 0.3,-2.1 2.6,-1.9 2.6,-1.9 v 0 h 18.1 l 1.9,-12.9 H 350 l -1.6,10.8 c -0.3,2.6 -1.7,2 -2.4,2.1 h -20.7 l -1.9,12.9 h 21 c 0.8,0.1 1.9,-0.3 1.5,2.3 l -6.8,47.3 h 19.3 l 7.1,-49.6 h -18.4 c -0.8,0 -1.9,-0.3 -1.8,-1.5 z"
         id="path3036"
         style="fill:#ec6608" />
      <path
         d="m 668.4,277.5 c -0.1,-0.5 -0.2,-1 -0.3,-1.4 0,-0.3 -0.1,-0.6 -0.2,-0.9 -0.1,-0.4 -0.2,-0.8 -0.3,-1.2 -0.1,-0.3 -0.1,-0.5 -0.2,-0.7 -5.3,-16.4 -26.8,-11.5 -33.9,-3.8 l 1.1,-7.3 h -18.1 l -9.8,68.5 h 19.5 l 3.4,-23.7 c 1.6,2 3.6,3.5 5.9,4.5 2.3,1 4.9,1.5 7.9,1.5 6.1,0 11.5,-2.2 16.2,-6.5 4.6,-4.3 7.5,-10.6 8.7,-18.9 0.1,-0.8 0.2,-1.7 0.3,-2.5 0.2,-2.8 0.1,-5.3 -0.2,-7.6 l 0,0 z m -19.3,9.2 c -0.6,4.4 -1.8,7.5 -3.6,9.3 -1.8,1.8 -3.8,2.7 -6,2.7 -2.6,0 -4.5,-0.9 -5.9,-2.8 -1.4,-1.9 -1.8,-4.8 -1.2,-8.8 0.6,-4.3 1.9,-7.3 3.8,-9.2 1.9,-1.9 4.1,-2.8 6.6,-2.8 2.3,0 4.1,0.9 5.4,2.8 1.1,1.8 1.5,4.8 0.9,8.8 z"
         id="path3038"
         style="fill:#ec6608" />
    </g>
  </g>
</svg>
