<?xml version="1.0" encoding="utf-8"?>
<!-- Generator: Adobe Illustrator 16.0.0, SVG Export Plug-In . SVG Version: 6.00 Build 0)  -->
<!DOCTYPE svg PUBLIC "-//W3C//DTD SVG 1.1//EN" "http://www.w3.org/Graphics/SVG/1.1/DTD/svg11.dtd">
<svg version="1.1" id="Layer_1" xmlns="http://www.w3.org/2000/svg" xmlns:xlink="http://www.w3.org/1999/xlink" x="0px" y="0px"
	 width="636px" height="201px" viewBox="0 0 636 201" enable-background="new 0 0 636 201" xml:space="preserve">
<path fill="#1C1C1C" d="M255.38,118.036c0,11.419-8.772,17.543-20.77,19.611l-3.723-11.585c5.875-1.075,11.171-2.399,11.171-9.929
	V69.545h13.322V118.036z"/>
<path fill="#1C1C1C" d="M291.704,83.53h13.157v39.802h-11.585l-0.662-6.288c-4.054,5.213-9.019,7.115-14.15,7.115
	c-7.115,0-13.322-2.979-13.322-14.149V83.53h13.157v23.087c0,5.627,2.151,6.619,4.634,6.619c2.896,0,6.455-2.481,8.771-5.213V83.53z
	"/>
<path fill="#1C1C1C" d="M312.305,94.122c0-6.868,7.447-11.833,17.377-11.833c6.62,0,11.668,1.158,15.889,3.641l-3.808,10.674
	c-2.233-2.648-6.123-4.551-10.757-4.551c-2.151,0-5.048,0.414-5.048,2.234c0,3.972,19.942,2.4,19.942,16.716
	c0,9.682-9.517,13.156-19.031,13.156c-5.627,0-11.336-1.158-14.978-3.226l3.061-11.006c2.815,2.481,7.862,4.385,11.585,4.385
	c2.896,0,5.544-0.496,5.544-2.979C332.081,106.203,312.305,108.603,312.305,94.122"/>
<path fill="#1C1C1C" d="M368.652,108.271c0.248,4.056,1.655,5.462,4.965,5.462c2.482,0,5.379-1.488,7.365-3.145l1.903,10.344
	c-3.725,1.903-8.606,3.228-13.157,3.228c-8.026,0-14.233-3.476-14.233-13.157V93.708h-5.875v-9.02l6.041-0.828l1.572-10.26h11.419
	v10.26h11.916v9.848h-11.916V108.271z"/>
<polygon fill="#1C1C1C" points="389.088,69.545 422.52,69.545 422.52,73.021 400.259,107.279 392.316,119.36 423.346,119.36 
	423.346,123.333 387.516,123.333 387.516,120.188 409.61,86.096 417.885,73.518 389.088,73.518 "/>
<path fill="#1C1C1C" d="M453.958,105.956c-1.902-0.331-4.551-0.662-7.282-0.662c-5.957,0-12.411,1.488-12.411,7.611
	c0,5.132,3.227,7.696,8.439,7.696c3.972,0,8.689-2.648,11.254-5.462V105.956z M454.041,95.695c0-7.034-3.724-9.02-8.688-9.02
	c-2.98,0-8.607,0.828-8.607,5.709c0,0.746,0.166,1.491,0.414,2.401l-3.971,0.413c-0.332-0.993-0.498-1.985-0.498-2.896
	c0-5.71,6.454-9.185,13.075-9.185c5.544,0,12.247,2.4,12.247,11.668l-0.083,21.265c0,4.469,2.316,5.131,4.385,4.469l0.497,3.31
	c-0.911,0.25-1.821,0.331-2.565,0.331c-3.393,0-5.544-2.068-6.041-5.213c-4.717,4.304-9.019,5.213-12.908,5.213
	c-6.867,0-11.337-4.551-11.337-10.592c0-9.102,8.771-11.336,17.129-11.336c2.399,0,4.718,0.165,6.868,0.413L454.041,95.695z"/>
<path fill="#1C1C1C" d="M484.406,107.361c4.965,0,11.833-3.557,11.833-10.591c0-6.951-5.626-10.178-11.833-10.178
	c-5.957,0-11.501,3.392-11.501,10.509C472.905,104.548,479.442,107.361,484.406,107.361 M480.435,121.926
	c-4.966,1.82-9.021,4.552-9.021,9.102c0,5.544,6.952,7.697,13.82,7.697c9.185,0,15.06-4.801,15.06-10.18
	c0-4.303-5.627-5.709-12.164-6.04C485.151,122.339,482.668,122.256,480.435,121.926 M499.053,84.606h6.289v3.227h-8.191
	c2.15,2.399,3.227,5.544,3.227,8.772c0,6.868-5.876,12.743-13.736,13.735c-4.386,1.323-9.434,3.145-9.434,5.296
	c0,2.647,5.296,2.979,11.502,3.393c8.027,0.579,15.805,1.821,15.805,8.771c0,7.116-7.363,14.232-20.024,14.232
	c-8.44,0-17.211-2.896-17.211-10.177c0-4.305,3.226-8.524,9.267-10.841c-1.82-0.827-2.978-2.648-2.978-4.552
	c0-3.062,3.143-5.048,6.784-6.371c-7.86-1.489-11.585-7.199-11.585-12.909c0-7.531,6.289-14.068,15.64-14.068
	C489.205,83.116,490.364,84.523,499.053,84.606"/>
<path fill="#1C1C1C" d="M516.84,123.332h-4.055V83.944h3.972v6.619c3.56-4.633,8.192-6.95,12.329-6.95c0.828,0,1.655,0,2.482,0.082
	l-0.331,4.138c-0.661-0.248-1.489-0.331-2.233-0.331c-4.221,0-8.439,2.565-12.164,6.62V123.332z"/>
<path fill="#1C1C1C" d="M563.342,100.328c0.248-8.192-3.146-13.654-10.427-13.654s-11.337,4.8-12.081,13.654H563.342z
	 M565.492,116.712l1.241,3.725c-2.647,1.737-6.702,3.723-12.412,3.723c-11.171,0-17.873-6.702-17.873-20.521
	c0-13.157,7.116-20.522,16.632-20.522c9.02,0,14.398,5.379,14.398,18.122v2.4h-26.728c0,10.758,4.8,16.964,14.48,16.964
	C560.031,120.603,563.838,118.119,565.492,116.712"/>
<path fill="#1C1C1C" d="M581.708,118.781c2.813,1.242,5.958,1.821,8.689,1.821c10.261,0,15.97-6.621,15.97-17.46
	c0-10.841-5.378-16.468-12.66-16.468c-3.641,0-7.777,1.49-11.999,4.552V118.781z M581.708,87.585
	c4.222-3.062,8.523-4.469,12.661-4.469c10.592,0,16.302,8.11,16.302,19.778c0,12.908-7.944,21.265-20.024,21.265
	c-3.973,0-8.358-0.827-12.993-2.813V66.65h4.055V87.585z"/>
<path fill="#FF1C26" d="M46.737,45.801c1.007-1.58,22.163-3.641,30.318-6.953c11.41-4.633,27.464-13.404,31.437-11.636
	c8.19,3.647,17.138,10.149,25.766,14.277c7.459,3.568,19.417,5.548,21.635,6.741c5.093,2.74,8.894,21.714,12.16,28.823
	c3.998,8.697,10.381,21.203,12.015,26.604c0.666,2.203-10.792,23.298-12.792,27.413c-4.506,9.277-7.074,25.608-10.906,27.564
	c-4.317,2.204-9.637,2.825-20.717,7.255c-7.77,3.107-26.461,13.72-30.599,14.441c-1.164,0.203-22.83-8.729-27.25-10.36
	c-8.096-2.989-31.989-8.051-34.21-10.22c-1.197-1.172-3.955-17.389-7.75-28.141c-3.191-9.043-11.649-27.992-13.428-33.87
	c-0.398-2.126,7.021-10.347,10.298-16.48C39.731,68.125,44.672,49.037,46.737,45.801"/>
<path fill="#FFD973" d="M52.939,151.115c3.363,0.994,8.137,2.24,11.716,3.175l0.108,0.028c6.717,1.756,13.062,3.413,17.02,4.876
	c1.49,0.551,4.405,1.712,8.093,3.182l0.298,0.119c4.067,1.62,10.705,4.265,14.589,5.708c3.001-1.37,7.689-3.759,11.183-5.539
	l0.966,1.658l-0.87-1.706c5.888-3,11.45-5.834,15.346-7.393c6.268-2.506,10.9-3.905,14.281-4.927
	c1.22-0.368,2.312-0.697,3.241-1.008c0.79-2.097,1.785-5.398,2.471-7.674c1.53-5.076,3.263-10.829,5.562-15.563
	c0.506-1.042,1.364-2.694,2.552-4.979c1.974-3.802,6.442-12.403,8.47-17.022c-1.547-3.706-4.173-9.192-6.31-13.657l-0.127-0.265
	c-1.406-2.939-2.735-5.716-3.912-8.277c-1.397-3.041-2.658-7.089-3.994-11.375c-1.047-3.358-2.907-9.32-4.315-12.294
	c-0.723-0.188-1.51-0.386-2.188-0.557c-5.155-1.3-12.169-3.07-17.819-5.773c-4.571-2.186-9.014-4.845-13.31-7.417
	c-3.514-2.105-6.796-4.071-9.847-5.617c-3.371,1.079-9.797,4.014-13.745,5.817c-3.711,1.695-7.527,3.438-11.02,4.857
	c-5.519,2.242-14.065,3.732-21.605,5.047l-0.192,0.034c-1.356,0.237-2.905,0.507-4.316,0.768c-0.405,1.161-0.831,2.412-1.221,3.557
	c-2.711,7.955-6.416,18.826-11.199,27.777c-1.788,3.347-4.269,6.786-6.457,9.82c-0.443,0.613-0.966,1.338-1.47,2.051
	c1.25,3.198,3.012,7.45,4.583,11.242l0.053,0.126c2.697,6.507,5.487,13.236,7.123,17.873c2.249,6.375,4.047,13.983,5.492,20.099
	l0.093,0.395C52.481,149.205,52.715,150.187,52.939,151.115 M104.834,172.184c-0.222,0-0.443-0.039-0.655-0.116
	c-3.783-1.378-11.069-4.28-15.422-6.016l-0.285-0.114c-3.677-1.465-6.57-2.618-8.015-3.15c-3.783-1.398-10.039-3.033-16.662-4.764
	l-0.107-0.027c-3.999-1.044-9.478-2.475-12.914-3.535c-0.641-0.197-1.132-0.716-1.294-1.368c-0.302-1.221-0.636-2.63-0.944-3.931
	l-0.094-0.395c-1.423-6.026-3.195-13.525-5.376-19.707c-1.602-4.538-4.372-11.22-7.05-17.681l-0.053-0.127
	c-1.741-4.202-3.714-8.965-4.987-12.283c-0.227-0.591-0.147-1.256,0.213-1.776c0.673-0.971,1.464-2.069,2.089-2.934
	c2.122-2.941,4.522-6.269,6.19-9.39c4.636-8.676,8.283-19.377,10.946-27.19c0.52-1.527,1.098-3.223,1.607-4.657
	c0.227-0.639,0.776-1.111,1.443-1.239c1.68-0.323,3.725-0.681,5.457-0.984l0.193-0.034c7.352-1.281,15.684-2.734,20.823-4.822
	c3.418-1.388,7.195-3.114,10.849-4.782c4.641-2.12,11.623-5.309,15.029-6.242c0.451-0.124,0.931-0.078,1.351,0.129
	c3.379,1.661,6.95,3.8,10.73,6.064c4.282,2.563,8.646,5.176,13.056,7.284c5.305,2.538,12.105,4.254,17.07,5.507
	c0.998,0.251,2.179,0.549,3.099,0.796c0.504,0.135,0.931,0.471,1.182,0.928c1.62,2.953,3.714,9.664,4.964,13.674
	c1.309,4.199,2.534,8.133,3.828,10.949c1.165,2.535,2.488,5.299,3.887,8.225l0.127,0.265c2.306,4.817,5.176,10.812,6.708,14.611
	c0.189,0.468,0.185,0.991-0.01,1.457c-1.901,4.527-6.81,13.978-8.906,18.013c-1.138,2.19-2.03,3.907-2.513,4.902
	c-2.166,4.459-3.852,10.058-5.341,14.996c-0.85,2.819-2.013,6.68-2.914,8.828c-0.205,0.491-0.607,0.875-1.108,1.058
	c-1.18,0.433-2.603,0.861-4.25,1.357c-3.313,1.001-7.852,2.373-13.965,4.817c-3.735,1.492-9.221,4.287-15.029,7.247l-0.097,0.05
	c-3.82,1.945-9.052,4.61-12.079,5.943C105.361,172.129,105.098,172.184,104.834,172.184"/>
<path fill="#45C7F5" d="M59.349,144.963c2.382,0.648,4.924,1.313,7.062,1.871l0.181,0.047c6.947,1.814,13.509,3.526,17.844,5.128
	c1.597,0.59,4.54,1.765,8.267,3.25c3.009,1.198,7.858,3.132,11.725,4.623c2.634-1.286,5.756-2.876,8.091-4.064
	c6.09-3.104,11.801-6.016,16.026-7.703c6.23-2.493,10.895-3.934,14.363-4.983c0.418-1.329,0.827-2.685,1.14-3.725
	c1.613-5.351,3.439-11.414,6.007-16.7c0.534-1.097,1.375-2.718,2.54-4.962l0.105-0.202c1.453-2.799,4.672-8.997,6.87-13.583
	c-1.462-3.243-3.313-7.107-4.823-10.26c-1.468-3.069-2.852-5.96-4.089-8.651c-1.6-3.481-2.933-7.757-4.345-12.285
	c-0.51-1.64-1.629-5.231-2.66-8.116c-5.934-1.512-12.124-3.24-17.656-5.886c-4.896-2.342-9.503-5.1-13.958-7.766
	c-2.19-1.313-4.411-2.643-6.466-3.795c-3.285,1.337-7.601,3.309-10.01,4.41l-0.11,0.05c-3.725,1.7-7.575,3.458-11.192,4.926
	c-6.275,2.55-15.247,4.115-23.163,5.496l-0.05,0.009C58.263,70.26,54.523,81.072,49.6,90.285c-1.711,3.203-3.809,6.245-6.011,9.315
	c0.943,2.317,1.986,4.835,2.961,7.19l0.08,0.192c2.755,6.646,5.574,13.448,7.271,18.256
	C56.146,131.604,57.913,138.898,59.349,144.963 M104.517,163.883c-0.232,0-0.464-0.043-0.685-0.127
	c-3.997-1.532-9.325-3.656-12.508-4.926c-3.595-1.432-6.665-2.656-8.215-3.229c-4.158-1.535-10.632-3.226-17.485-5.015l-0.182-0.048
	c-2.483-0.649-5.509-1.44-8.203-2.182c-0.675-0.187-1.194-0.726-1.355-1.406c-1.461-6.182-3.279-13.874-5.595-20.438
	c-1.662-4.709-4.461-11.463-7.167-17.994l-0.109-0.263c-1.119-2.7-2.326-5.613-3.37-8.197c-0.247-0.61-0.164-1.304,0.222-1.838
	c2.347-3.254,4.599-6.448,6.358-9.74c4.934-9.235,8.697-20.278,11.444-28.342l0.121-0.353c0.225-0.665,0.797-1.153,1.489-1.272
	l1.156-0.202c7.733-1.349,16.491-2.877,22.387-5.273c3.542-1.437,7.355-3.178,11.042-4.861l0.111-0.05
	c2.649-1.212,7.584-3.467,11.032-4.824c0.529-0.208,1.125-0.171,1.623,0.103c2.332,1.28,4.875,2.804,7.334,4.277
	c4.423,2.648,8.952,5.358,13.687,7.624c5.52,2.641,11.882,4.351,17.925,5.877c0.61,0.154,1.106,0.598,1.325,1.188
	c1.152,3.092,2.494,7.399,3.066,9.239c1.378,4.419,2.676,8.581,4.172,11.838c1.225,2.664,2.602,5.541,4.061,8.588
	c1.65,3.448,3.7,7.728,5.231,11.168c0.226,0.51,0.219,1.092-0.019,1.597c-2.221,4.701-5.763,11.522-7.276,14.436l-0.141,0.271
	c-1.151,2.218-1.982,3.82-2.494,4.871c-2.434,5.011-4.213,10.919-5.784,16.131c-0.395,1.313-0.94,3.118-1.468,4.751
	c-0.192,0.6-0.666,1.063-1.268,1.245l-0.43,0.129c-3.473,1.051-8.197,2.48-14.582,5.033c-4.063,1.625-9.699,4.497-15.667,7.538
	c-2.617,1.333-6.142,3.129-8.95,4.486C105.087,163.819,104.803,163.883,104.517,163.883"/>
<path fill="#9ED1A3" d="M65.73,138.737l2.796,0.733c7.13,1.862,13.866,3.62,18.563,5.354c1.664,0.615,4.58,1.777,8.271,3.248
	l0.176,0.07c2.236,0.892,5.46,2.177,8.518,3.376c1.702-0.852,3.416-1.726,4.856-2.46l0.18-0.092
	c6.202-3.16,12.059-6.146,16.612-7.965c4.702-1.879,8.45-3.147,11.066-3.986c1.684-5.585,3.596-11.887,6.399-17.658
	c0.607-1.251,1.547-3.058,2.736-5.346l0.074-0.145c1.072-2.064,3.223-6.209,5.115-10.01c-1.083-2.317-2.244-4.745-3.253-6.851
	c-1.496-3.125-2.884-6.025-4.141-8.76c-1.807-3.932-3.213-8.444-4.702-13.219c-0.277-0.893-0.744-2.391-1.274-4.018
	c-4.139-1.131-9.837-2.855-15.031-5.338c-5.252-2.515-10.025-5.374-14.641-8.139c-1.026-0.614-2.029-1.214-3.003-1.79
	c-2.357,1.031-4.785,2.139-6.304,2.833c-3.879,1.772-7.819,3.571-11.601,5.106c-5.963,2.423-13.526,3.945-20.32,5.167
	c-2.749,7.903-6.13,16.928-10.468,25.045c-1.099,2.058-2.409,4.197-4.09,6.673l1.439,3.482c2.772,6.685,5.638,13.599,7.418,18.641
	C63.016,128.056,64.561,133.964,65.73,138.737 M104.15,155.527c-0.236,0-0.473-0.044-0.697-0.132
	c-3.292-1.287-6.899-2.724-9.293-3.68l-0.217-0.086c-3.666-1.461-6.562-2.615-8.18-3.213c-4.519-1.668-11.167-3.404-18.204-5.241
	l-3.907-1.024c-0.68-0.18-1.207-0.718-1.372-1.399c-1.177-4.86-2.783-11.16-4.769-16.787c-1.745-4.946-4.592-11.812-7.344-18.451
	l-1.839-4.446c-0.246-0.6-0.172-1.283,0.197-1.816c1.91-2.763,3.283-4.971,4.453-7.162c4.407-8.248,7.828-17.546,10.594-25.553
	c0.227-0.656,0.791-1.139,1.475-1.26c7.382-1.312,14.994-2.843,20.655-5.143c3.707-1.504,7.609-3.286,11.382-5.009
	c1.794-0.82,4.681-2.138,7.337-3.284c0.559-0.243,1.2-0.204,1.726,0.105c1.243,0.728,2.538,1.503,3.872,2.302
	c4.54,2.72,9.235,5.532,14.326,7.969c4.009,1.917,9.036,3.672,15.37,5.365c0.623,0.166,1.12,0.635,1.323,1.248
	c0.666,2.012,1.279,3.977,1.615,5.059c1.451,4.654,2.821,9.051,4.525,12.759c1.245,2.707,2.627,5.594,4.09,8.651
	c1.162,2.427,2.491,5.205,3.686,7.779c0.245,0.526,0.238,1.135-0.02,1.655c-1.998,4.043-4.402,8.674-5.557,10.9l-0.055,0.104
	c-1.196,2.304-2.125,4.089-2.71,5.294c-2.7,5.559-4.575,11.779-6.231,17.269l-0.237,0.789c-0.183,0.605-0.654,1.083-1.258,1.272
	c-2.56,0.808-6.565,2.118-11.761,4.195c-4.392,1.755-10.174,4.702-16.295,7.823l-0.181,0.091c-1.663,0.848-3.691,1.88-5.644,2.854
	C104.736,155.46,104.443,155.527,104.15,155.527"/>
<path fill="#FFD973" d="M100.004,104.108l3.813,2.719l3.687-2.285l-0.695-4.055l-3.334-1.406l-2.655,0.801L100.004,104.108z
	 M103.751,110.62c-0.351,0-0.702-0.106-1.001-0.319l-5.648-4.028c-0.549-0.391-0.819-1.067-0.691-1.729l1.223-6.337
	c0.121-0.629,0.581-1.139,1.194-1.323l4.246-1.281c0.385-0.117,0.797-0.094,1.167,0.062l4.776,2.014
	c0.542,0.228,0.93,0.717,1.029,1.296l1.051,6.129c0.118,0.691-0.194,1.386-0.79,1.756l-5.648,3.502
	C104.38,110.534,104.065,110.62,103.751,110.62"/>
</svg>
