<svg xmlns="http://www.w3.org/2000/svg" width="505" height="229"><path fill="#3CAFE8" d="M504.703 222.18c0 3.707-3 6.707-6.703 6.707H6.707c-3.703 0-6.707-3-6.707-6.707V6.71C0 3.005 3.004 0 6.707 0H498c3.703 0 6.703 3.004 6.703 6.71v215.47zm0 0"/><path fill="#FFF" d="M217.148 141.914c1.125-.394 2.125-.84 3.008-1.34.88-.504 1.508-.926 1.867-1.293.368-.335.598-.624.704-.854.11-.223.203-.52.277-.887.078-.364.137-.813.183-1.35.043-.526.063-1.186.063-1.98 0-1-.027-1.812-.09-2.456-.055-.64-.137-1.16-.25-1.574-.1-.41-.246-.688-.426-.832-.187-.164-.414-.25-.69-.25-.396 0-.88.25-1.454.718-.578.47-1.293.98-2.14 1.57-.852.583-1.848 1.102-2.985 1.57-1.145.48-2.5.704-4.086.704-1.544 0-2.91-.27-4.07-.828-1.177-.57-2.142-1.422-2.92-2.54-.773-1.124-1.36-2.53-1.757-4.187-.4-1.68-.59-3.605-.59-5.79 0-4.44.79-7.795 2.36-10.092 1.585-2.297 3.87-3.45 6.843-3.45 1.524 0 2.82.215 3.926.645 1.086.434 2.03.89 2.82 1.406.785.528 1.473.996 2.05 1.418.575.426 1.122.645 1.638.645.488 0 .882-.364 1.187-1.078.305-.712.453-1.958.453-3.712 0-.766-.023-1.407-.066-1.942-.047-.527-.106-.98-.184-1.344-.074-.363-.183-.656-.316-.898-.14-.22-.38-.5-.71-.836-.33-.332-.903-.73-1.712-1.183-.8-.45-1.71-.868-2.73-1.235-1.016-.36-2.11-.648-3.282-.855-1.172-.207-2.36-.328-3.578-.328-2.976 0-5.71.476-8.195 1.41-2.492.95-4.656 2.402-6.473 4.34-1.82 1.945-3.246 4.398-4.265 7.36-1.013 2.964-1.525 6.48-1.525 10.554 0 3.52.418 6.65 1.246 9.387.84 2.727 2.083 5.05 3.716 6.946 1.65 1.898 3.672 3.332 6.09 4.304 2.418.973 5.187 1.46 8.316 1.46 1.4 0 2.754-.124 4.078-.362 1.325-.238 2.547-.566 3.668-.96m121.508-7.34c-.074-.548-.156-.977-.238-1.29-.102-.328-.23-.535-.395-.644-.168-.11-.347-.152-.527-.152-.21 0-.45.043-.707.153-.255.11-.575.23-.95.36-.387.14-.82.27-1.305.363-.488.11-1.03.164-1.64.164-1.793 0-3.036-.55-3.74-1.656-.694-1.12-1.042-2.776-1.042-4.995v-19.09H337c.57 0 1.012-.355 1.316-1.082.305-.715.457-1.894.457-3.574 0-.876-.035-1.618-.117-2.228-.074-.605-.187-1.086-.34-1.437-.152-.352-.336-.598-.57-.75-.226-.156-.488-.23-.793-.23h-8.84V89.41c0-.293-.093-.574-.28-.816-.177-.242-.485-.442-.91-.606-.427-.168-1.01-.3-1.743-.37-.754-.07-1.692-.118-2.81-.118-1.097 0-2.01.047-2.76.117-.743.07-1.337.203-1.778.37-.434.165-.742.365-.91.607-.164.242-.25.523-.25.816v9.074h-4.836c-.293 0-.563.075-.785.23-.238.153-.425.4-.58.75-.154.352-.255.833-.333 1.438-.082.61-.12 1.352-.12 2.227 0 1.68.147 2.858.452 3.573.307.727.753 1.082 1.327 1.082h4.875v20.82c0 2.493.25 4.65.773 6.46.52 1.84 1.325 3.357 2.418 4.544 1.094 1.2 2.47 2.085 4.145 2.663 1.668.59 3.648.88 5.926.88.85 0 1.69-.055 2.523-.15.844-.1 1.617-.214 2.328-.398.71-.152 1.336-.35 1.87-.574.532-.225.93-.49 1.208-.784.274-.277.492-.79.66-1.504.168-.703.25-1.73.25-3.078 0-.836-.035-1.543-.117-2.09m-32.765-5.383c0-1.838-.292-3.444-.867-4.792-.582-1.355-1.34-2.52-2.28-3.496-.946-.968-2.013-1.793-3.216-2.453-1.203-.67-2.418-1.266-3.648-1.763-1.232-.503-2.443-.957-3.642-1.39-1.21-.422-2.273-.875-3.215-1.36-.94-.492-1.707-1.062-2.277-1.69-.582-.642-.86-1.427-.86-2.364 0-.617.11-1.184.364-1.707.238-.543.605-1.004 1.09-1.403.484-.382 1.105-.69 1.863-.902.762-.214 1.656-.323 2.688-.323 1.462 0 2.758.16 3.9.488 1.132.32 2.144.652 3.007 1.008.867.375 1.59.71 2.16 1.03.582.33 1.008.478 1.277.478.25 0 .457-.05.64-.148.188-.11.333-.316.438-.617.106-.312.184-.72.223-1.246.05-.505.074-1.185.074-1.993 0-.703-.024-1.285-.075-1.762-.04-.47-.098-.87-.16-1.172-.063-.324-.148-.6-.266-.832-.126-.22-.333-.452-.622-.682-.29-.22-.765-.496-1.426-.817-.675-.323-1.496-.62-2.468-.89-.973-.27-2.063-.5-3.254-.675-1.207-.192-2.445-.274-3.723-.274-2.547 0-4.847.314-6.902.95-2.055.637-3.79 1.544-5.223 2.688-1.422 1.156-2.515 2.55-3.277 4.184-.754 1.617-1.133 3.39-1.133 5.336 0 1.92.273 3.562.84 4.933.566 1.368 1.305 2.54 2.226 3.505.934.977 1.977 1.797 3.15 2.465 1.175.66 2.374 1.254 3.6 1.77 1.223.527 2.438 1 3.598 1.414 1.172.425 2.223.886 3.15 1.375.924.487 1.67 1.053 2.23 1.702.565.652.847 1.43.847 2.35 0 .786-.157 1.49-.457 2.095-.31.613-.754 1.11-1.348 1.5-.59.395-1.293.703-2.094.914-.804.212-1.726.325-2.758.325-1.64 0-3.11-.2-4.394-.59-1.293-.398-2.426-.828-3.402-1.285-.97-.45-1.782-.875-2.434-1.25-.656-.383-1.15-.566-1.477-.566-.274 0-.5.05-.688.148-.18.114-.344.32-.457.64-.125.33-.207.747-.274 1.286-.053.524-.088 1.234-.088 2.11 0 1.335.09 2.347.27 3.042.187.676.444 1.176.776 1.493.332.328.864.664 1.59 1.035.735.355 1.645.72 2.74 1.066 1.1.34 2.33.645 3.713.87 1.384.224 2.833.333 4.357.333 2.52 0 4.86-.293 7.02-.886 2.152-.585 4.023-1.48 5.6-2.667 1.575-1.188 2.81-2.657 3.67-4.41.862-1.77 1.304-3.813 1.304-6.122m-65.19.505c0 1.703.542 3.043 1.616 4.012 1.086.984 2.58 1.46 4.49 1.46 1.612 0 3.092-.405 4.44-1.233 1.356-.817 2.73-2.016 4.125-3.598v-6.93h-4.374c-1.855 0-3.43.145-4.738.418-1.305.27-2.37.672-3.188 1.227-.82.552-1.422 1.216-1.797 1.993-.382.777-.574 1.652-.574 2.652m-2.352 12.742c-1.805-.566-3.368-1.39-4.696-2.503-1.316-1.11-2.343-2.485-3.074-4.122-.723-1.644-1.09-3.558-1.09-5.753 0-2.365.465-4.42 1.387-6.166.926-1.75 2.316-3.187 4.152-4.335 1.836-1.154 4.125-1.978 6.86-2.53 2.73-.55 5.91-.82 9.523-.82h3.96v-2.464c0-1.273-.128-2.394-.39-3.35-.25-.955-.675-1.744-1.27-2.38-.593-.657-1.386-1.114-2.374-1.43-.98-.297-2.207-.442-3.664-.442-1.918 0-3.625.21-5.13.63-1.503.425-2.827.894-3.98 1.413-1.16.524-2.12.993-2.89 1.415-.785.425-1.414.64-1.902.64-.33 0-.625-.098-.883-.312-.262-.207-.473-.524-.645-.926-.164-.4-.285-.875-.383-1.453-.094-.573-.14-1.206-.14-1.906 0-.945.077-1.695.237-2.234.145-.547.438-1.04.863-1.496.418-.43 1.164-.918 2.227-1.437 1.062-.543 2.316-1.032 3.734-1.493 1.435-.45 2.99-.82 4.673-1.117 1.692-.293 3.426-.426 5.223-.426 3.19 0 5.922.314 8.183.927 2.253.633 4.12 1.586 5.574 2.875 1.46 1.293 2.523 2.953 3.2 4.992.66 2.032 1 4.45 1 7.243v27.343c0 .426-.16.758-.454 1-.31.242-.785.414-1.446.524-.648.11-1.613.164-2.886.164-1.368 0-2.368-.055-2.99-.164-.624-.11-1.065-.282-1.323-.524-.254-.242-.387-.574-.387-1v-3.242c-1.668 1.797-3.574 3.195-5.718 4.2-2.137 1-4.52 1.5-7.13 1.5-2.16 0-4.14-.282-5.952-.84m160.5-12.258c-.11-.41-.25-.688-.438-.832-.176-.164-.406-.25-.683-.25-.387 0-.872.25-1.454.718-.582.47-1.3.98-2.14 1.57-.852.583-1.848 1.102-2.985 1.57-1.14.48-2.5.704-4.082.704-1.546 0-2.902-.27-4.074-.828-1.176-.57-2.144-1.422-2.922-2.54-.77-1.124-1.36-2.53-1.758-4.187-.386-1.68-.59-3.605-.59-5.79 0-4.44.794-7.796 2.372-10.092 1.582-2.297 3.855-3.45 6.843-3.45 1.508 0 2.825.215 3.915.645 1.09.434 2.027.89 2.824 1.406.79.528 1.472.996 2.058 1.418.57.426 1.12.645 1.633.645.485 0 .88-.364 1.188-1.078.3-.712.453-1.958.453-3.712 0-.766-.02-1.407-.063-1.942-.047-.527-.12-.98-.2-1.344-.065-.363-.18-.656-.308-.898-.132-.22-.375-.5-.71-.836-.33-.332-.903-.73-1.707-1.184-.8-.45-1.708-.867-2.73-1.234-1.013-.36-2.114-.648-3.282-.855-1.168-.207-2.36-.328-3.582-.328-2.973 0-5.707.476-8.2 1.41-2.492.95-4.648 2.402-6.468 4.34-1.824 1.945-3.246 4.398-4.262 7.36-1.02 2.964-1.52 6.48-1.52 10.554 0 3.52.415 6.65 1.247 9.387.843 2.727 2.074 5.05 3.714 6.946 1.633 1.898 3.668 3.332 6.08 4.304 2.424.973 5.198 1.46 8.323 1.46 1.394 0 2.758-.124 4.074-.362 1.32-.238 2.55-.566 3.672-.96 1.117-.396 2.13-.84 3.004-1.34.88-.505 1.504-.927 1.867-1.294.36-.335.602-.624.7-.854.113-.223.202-.52.288-.887.063-.364.133-.813.176-1.35.052-.526.067-1.186.067-1.98 0-1-.027-1.812-.085-2.456-.063-.64-.153-1.16-.254-1.574m-43.282-31.836c-.738-.094-1.664-.133-2.78-.133-1.126 0-2.06.04-2.786.134-.727.09-1.31.222-1.754.386-.44.18-.746.372-.93.598-.187.227-.277.492-.277.79v40.558c0 .308.09.57.276.812.184.215.49.406.93.563.445.145 1.027.266 1.754.34.727.083 1.66.118 2.785.118 1.117 0 2.043-.035 2.78-.117.732-.074 1.302-.195 1.747-.34.446-.156.758-.347.942-.562.18-.242.27-.504.27-.812v-40.56c0-.296-.09-.56-.27-.788-.184-.226-.496-.418-.942-.598-.445-.164-1.015-.296-1.746-.386m-2.84-5.97c2.555 0 4.305-.437 5.25-1.312.934-.882 1.415-2.476 1.415-4.796 0-2.223-.456-3.758-1.37-4.622-.91-.867-2.633-1.292-5.2-1.292-2.582 0-4.332.44-5.258 1.347-.93.894-1.382 2.487-1.382 4.796 0 2.223.445 3.758 1.343 4.61.89.843 2.625 1.27 5.204 1.27m-180.434 28.022c0-1.992-.16-3.855-.477-5.535-.32-1.683-.863-3.144-1.625-4.386-.745-1.25-1.764-2.227-3.022-2.926-1.262-.69-2.852-1.046-4.762-1.046-1.7 0-3.187.316-4.472.94-1.266.615-2.32 1.53-3.137 2.728-.82 1.2-1.442 2.644-1.848 4.332-.41 1.68-.618 3.6-.618 5.758 0 2.015.176 3.855.504 5.547.332 1.674.87 3.147 1.62 4.393.743 1.254 1.75 2.21 3.032 2.89 1.274.684 2.852 1.028 4.735 1.028 1.73 0 3.238-.315 4.51-.936 1.275-.622 2.333-1.52 3.15-2.707.816-1.184 1.426-2.618 1.82-4.317.39-1.683.59-3.6.59-5.762m10.527-10.066c.856 2.79 1.278 6 1.278 9.625 0 3.45-.45 6.605-1.368 9.47-.906 2.85-2.293 5.32-4.14 7.382-1.856 2.06-4.192 3.66-6.98 4.788-2.79 1.12-6.06 1.68-9.8 1.68-3.615 0-6.755-.5-9.435-1.5-2.672-1.005-4.883-2.47-6.645-4.376-1.76-1.914-3.074-4.26-3.925-7.066-.844-2.797-1.274-5.985-1.274-9.563 0-3.468.466-6.63 1.396-9.51.918-2.86 2.312-5.326 4.168-7.372 1.847-2.054 4.168-3.648 6.953-4.77 2.77-1.12 6.027-1.68 9.77-1.68 3.644 0 6.808.49 9.476 1.486 2.676.976 4.883 2.426 6.637 4.336 1.746 1.922 3.04 4.273 3.89 7.07m-76.273 31.066c-.692-.59-1.03-1.554-1.03-2.886V89.426c0-.31.1-.59.292-.832.202-.23.526-.43.983-.598.457-.137 1.07-.27 1.848-.36.77-.077 1.958-.136 3.114-.136 1.19 0 2.16.06 2.922.137.76.09 1.37.222 1.812.36.457.167.785.366.985.597.2.242.297.523.297.832v41.648h18.195c.308 0 .57.074.793.238.226.172.422.457.57.825.15.382.27.882.344 1.507.074.622.113 1.387.113 2.305 0 .905-.04 3-.113 3.632-.074.613-.195 1.14-.344 1.547-.148.41-.344.698-.57.886-.223.18-.485.273-.793.273h-26.89c-1 0-1.848-.298-2.528-.892"/></svg>