<svg xmlns="http://www.w3.org/2000/svg" width="240" height="40" viewBox="0 0 240 40"><g opacity=".2"><path d="M98.2 30.6l1.9-15.5h-6.3l.4-3.5h16l-.4 3.5h-6.3l-1.9 15.5M161.8 30.6l.2-1.7c.2-1.9-.4-3.6-1.7-4.8h-6.5l-.8 6.4h-3.4l2.3-19h9.3c1.7 0 3.2.6 4.2 1.8 1.1 1.2 1.5 2.8 1.3 4.4-.2 1.8-1.2 3.6-2.8 4.8h-.1v.1c1.2 1.7 1.8 3.9 1.5 6.1l-.2 1.7h-3.3zm-7.6-9.8h5.9c1.6 0 3-1.3 3.2-2.9.1-.8-.1-1.5-.6-2s-1.2-.8-1.9-.8h-5.9l-.7 5.7zM142 30.6l.2-1.7c.3-2.3-.8-4.5-2.8-5.5-1.4.5-2.7.7-4.1.7h-.4l-.1.1-.8 6.4h-3.4l2.3-19h3.4l-1.1 9.1h.4c4.1 0 7.8-3.3 8.3-7.4l.2-1.7h3.4l-.2 1.7c-.4 3-2 6-4.6 8l-.1.1.1.1c2.1 1.8 3 4.5 2.7 7.4l-.2 1.7H142zM207.3 30.6l2.3-19h3.4l-2.3 19M217.5 11.6l-2.2 18.7c-.3 2.8-2.9 5.1-5.7 5.1l-.4 3.4c4.7 0 8.9-3.8 9.5-8.5l2.2-18.7h-3.4zM181.9 30.6l.6-4.7h-9l-.6 4.7h-3.4l1.3-11.1c.5-4.4 4.5-7.9 8.8-7.9 2.1 0 4 .8 5.3 2.3 1.3 1.5 1.9 3.5 1.7 5.6l-1.3 11.1h-3.4zm-2.7-15.5c-2.5 0-4.7 2-5 4.5l-.4 3h9l.4-3c.1-1.2-.2-2.3-.9-3.2-.8-.9-1.9-1.3-3.1-1.3zM235.2 30.6l.6-4.7h-9l-.6 4.7h-3.4l1.3-11.1c.5-4.4 4.5-7.9 8.8-7.9 2.1 0 4 .8 5.3 2.3 1.3 1.5 1.9 3.5 1.7 5.6l-1.3 11.1h-3.4zm-2.6-15.5c-2.5 0-4.7 2-5 4.5l-.4 3h9l.4-3c.1-1.2-.2-2.3-.9-3.2-.9-.9-1.9-1.3-3.1-1.3zM196.7 30.6c-2.1 0-4-.8-5.3-2.3s-1.9-3.5-1.6-5.6l.4-3.2c.2-2.1 1.3-4.1 3-5.6s3.8-2.3 5.9-2.3c2.1 0 4 .8 5.3 2.3l1.1 1.2-2.7 2.4-1.1-1.2c-.7-.8-1.8-1.3-3-1.3s-2.4.5-3.3 1.3c-.9.8-1.5 2-1.7 3.2l-.4 3.2c-.1 1.2.2 2.3.9 3.2.7.8 1.8 1.3 3 1.3s2.4-.5 3.3-1.3l1.4-1.2 2.1 2.4-1.4 1.2c-1.7 1.5-3.8 2.3-5.9 2.3zM118.7 30.6c-2.1 0-4-.8-5.3-2.3-1.3-1.5-1.9-3.5-1.6-5.6l.4-3.2c.3-2.1 1.3-4.1 3-5.6s3.7-2.3 5.9-2.3c2.1 0 4 .8 5.3 2.3s1.9 3.5 1.6 5.6l-.4 3.2c-.3 2.1-1.3 4.1-3 5.6s-3.8 2.3-5.9 2.3zm1.9-15.5c-1.2 0-2.4.5-3.3 1.3s-1.5 2-1.7 3.2l-.4 3.2c-.1 1.2.2 2.3.9 3.2.7.8 1.8 1.3 3 1.3s2.4-.5 3.3-1.3c.9-.8 1.5-2 1.7-3.2l.4-3.2c.1-1.2-.2-2.3-.9-3.2-.7-.9-1.8-1.3-3-1.3zM75.3 30.6l2.3-19h12.9l-.4 3.5h-9.5l-.6 4.3h8.5l-.4 3.4h-8.5l-.5 4.4h9.5l-.4 3.4M58.5 18L57 30.6h-3.4l2.3-19h2.9l9.4 12.6 1.5-12.6H73l-2.2 19h-3M42.3 3.2l-.4 2.9c-.5 2.7-2.2 4.6-3.6 5.2-2.9 1.4-7.4-1.1-11.8-3.5-4-2.2-8.1-4.4-12-4.5-3.1-.1-5.9.8-7.9 2.6-1.9 1.6-3.1 3.9-3.4 6.7L0 38h3.2l.3-2.1c.4-2.1 2.1-3.6 3.5-4.2 3.3-1.5 8.3.7 13.2 2.8 3.9 1.7 8 3.5 11.7 3.6h.7c2.6 0 4.7-.8 6.4-2.3 1.9-1.6 3-4 3.4-7l3.1-25.6h-3.2zm-9.9 31.6c-3.1-.1-6.9-1.8-10.6-3.3-5.6-2.5-10.9-5-15.8-2.8-.6.3-1.2.6-1.7 1 0-.1.3-7.7 8.1-6.7 2.9.4 6.2 1.9 9.5 3.5 1.3.6 2.5 1.2 3.8 1.7.3 1.4 1.5 2.5 3 2.5.8 0 1.5-.3 2-.8.6.1 1.2.2 1.9.3 1.6.1 4 .3 6.7-1.6-.2.3-.1 6.4-6.9 6.2zm.8-7.7c-.6 0-1.2-.2-1.8-.3-.4-1.2-1.5-2.1-2.9-2.1-.6 0-1.2.2-1.6.5-1.1-.5-2.3-1-3.4-1.6-3.4-1.6-7-3.3-10.3-3.7-3.2-.4-5.8.2-7.9 1.8 0-.1.1-7.4 7.9-6.8.3 0 .6.1.9.1.4 1.2 1.5 2.1 2.9 2.1.7 0 1.3-.2 1.8-.6 1.5.6 3 1.4 4.5 2.2 3.3 1.7 6.7 3.4 9.9 3.9 1.8.3 4.2.4 6.6-1.3l.3-.3c0-.1 0 6.7-6.9 6.1zm.8-7.8c-2.7-.4-5.9-2-9-3.6-1.7-.9-3.5-1.7-5.2-2.5-.3-1.2-1.5-2.2-2.9-2.2-.8 0-1.4.3-2 .7-.4-.1-.7-.1-1.1-.2-3.4-.3-5.2.2-7.6 1.9 0 0-.1-7.2 7.6-6.9 3.2.1 7 2.2 10.7 4.2 4.1 2.2 7.9 4.3 11.5 4.2 1.9 0 3.6-.7 4.9-1.8.1 0-.3 7.2-6.9 6.2z"/><path d="M31.4 26.8c.1.3.2.6.2 1 0 .9-.4 1.7-1 2.3.6.1 1.2.2 1.9.3.3-.5.5-1.1.5-1.7 0-.6-.2-1.1-.5-1.6-.3-.2-.7-.3-1.1-.3zM19.8 13.2c.1.3.1.5.1.8 0 1-.5 1.9-1.2 2.4.5.2 1 .5 1.6.7.7-.6 1.1-1.4 1.1-2.3 0-.4-.1-.7-.2-1.1-.5 0-.9-.2-1.4-.5 0 .1 0 .1 0 0z"/></g><path d="M98.2 29.6l1.9-15.5h-6.3l.4-3.5h16l-.4 3.5h-6.3l-1.9 15.5M161.8 29.6l.2-1.7c.2-1.9-.4-3.6-1.7-4.8h-6.5l-.8 6.4h-3.4l2.3-19h9.3c1.7 0 3.2.6 4.2 1.8 1.1 1.2 1.5 2.8 1.3 4.4-.2 1.8-1.2 3.6-2.8 4.8h-.1v.1c1.2 1.7 1.8 3.9 1.5 6.1l-.2 1.7h-3.3zm-7.6-9.8h5.9c1.6 0 3-1.3 3.2-2.9.1-.8-.1-1.5-.6-2s-1.2-.8-1.9-.8h-5.9l-.7 5.7zM142 29.6l.2-1.7c.3-2.3-.8-4.5-2.8-5.5-1.4.5-2.7.7-4.1.7h-.4l-.1.1-.8 6.4h-3.4l2.3-19h3.4l-1.1 9.1h.4c4.1 0 7.8-3.3 8.3-7.4l.2-1.7h3.4l-.2 1.7c-.4 3-2 6-4.6 8l-.1.1.1.1c2.1 1.8 3 4.5 2.7 7.4l-.2 1.7H142zM207.3 29.6l2.3-19h3.4l-2.3 19M217.5 10.6l-2.2 18.7c-.3 2.8-2.9 5.1-5.7 5.1l-.4 3.4c4.7 0 8.9-3.8 9.5-8.5l2.2-18.7h-3.4zM181.9 29.6l.6-4.7h-9l-.6 4.7h-3.4l1.3-11.1c.5-4.4 4.5-7.9 8.8-7.9 2.1 0 4 .8 5.3 2.3 1.3 1.5 1.9 3.5 1.7 5.6l-1.3 11.1h-3.4zm-2.7-15.5c-2.5 0-4.7 2-5 4.5l-.4 3h9l.4-3c.1-1.2-.2-2.3-.9-3.2-.8-.9-1.9-1.3-3.1-1.3zM235.2 29.6l.6-4.7h-9l-.6 4.7h-3.4l1.3-11.1c.5-4.4 4.5-7.9 8.8-7.9 2.1 0 4 .8 5.3 2.3 1.3 1.5 1.9 3.5 1.7 5.6l-1.3 11.1h-3.4zm-2.6-15.5c-2.5 0-4.7 2-5 4.5l-.4 3h9l.4-3c.1-1.2-.2-2.3-.9-3.2-.9-.9-1.9-1.3-3.1-1.3zM196.7 29.6c-2.1 0-4-.8-5.3-2.3s-1.9-3.5-1.6-5.6l.4-3.2c.2-2.1 1.3-4.1 3-5.6s3.8-2.3 5.9-2.3c2.1 0 4 .8 5.3 2.3l1.1 1.2-2.7 2.4-1.1-1.2c-.7-.8-1.8-1.3-3-1.3s-2.4.5-3.3 1.3c-.9.8-1.5 2-1.7 3.2l-.4 3.2c-.1 1.2.2 2.3.9 3.2.7.8 1.8 1.3 3 1.3s2.4-.5 3.3-1.3l1.4-1.2 2.1 2.4-1.4 1.2c-1.7 1.5-3.8 2.3-5.9 2.3zM118.7 29.6c-2.1 0-4-.8-5.3-2.3-1.3-1.5-1.9-3.5-1.6-5.6l.4-3.2c.3-2.1 1.3-4.1 3-5.6s3.7-2.3 5.9-2.3c2.1 0 4 .8 5.3 2.3s1.9 3.5 1.6 5.6l-.4 3.2c-.3 2.1-1.3 4.1-3 5.6s-3.8 2.3-5.9 2.3zm1.9-15.5c-1.2 0-2.4.5-3.3 1.3s-1.5 2-1.7 3.2l-.4 3.2c-.1 1.2.2 2.3.9 3.2.7.8 1.8 1.3 3 1.3s2.4-.5 3.3-1.3c.9-.8 1.5-2 1.7-3.2l.4-3.2c.1-1.2-.2-2.3-.9-3.2-.7-.9-1.8-1.3-3-1.3zM75.3 29.6l2.3-19h12.9l-.4 3.5h-9.5l-.6 4.3h8.5l-.4 3.4h-8.5l-.5 4.4h9.5l-.4 3.4M58.5 17L57 29.6h-3.4l2.3-19h2.9l9.4 12.6 1.5-12.6H73l-2.2 19h-3"/><g><linearGradient id="a" x2="45.493" y1="19.639" y2="19.639" gradientUnits="userSpaceOnUse"><stop offset="0" stop-color="#F8AE3C"/><stop offset=".391" stop-color="#F8AA32"/><stop offset=".756" stop-color="#F49922"/><stop offset="1" stop-color="#F3921B"/></linearGradient><path fill="url(#a)" d="M42.3 2.2l-.4 2.9c-.5 2.7-2.2 4.6-3.6 5.2-2.9 1.4-7.4-1.1-11.8-3.5-4-2.2-8.1-4.4-12-4.5-3.1-.1-5.9.8-7.9 2.6-1.9 1.6-3.1 3.9-3.4 6.7L0 37h3.2l.3-2.1c.4-2.1 2.1-3.6 3.5-4.2 3.3-1.5 8.3.7 13.2 2.8 3.9 1.7 8 3.5 11.7 3.6h.7c2.6 0 4.7-.8 6.4-2.3 1.9-1.6 3-4 3.4-7l3.1-25.6h-3.2zm-9.9 31.6c-3.1-.1-6.9-1.8-10.6-3.3-5.6-2.5-10.9-5-15.8-2.8-.6.3-1.2.6-1.7 1 0-.1.3-7.7 8.1-6.7 2.9.4 6.2 1.9 9.5 3.5 1.3.6 2.5 1.2 3.8 1.7.3 1.4 1.5 2.5 3 2.5.8 0 1.5-.3 2-.8.6.1 1.2.2 1.9.3 1.6.1 4 .3 6.7-1.6-.2.3-.1 6.4-6.9 6.2zm.8-7.7c-.6 0-1.2-.2-1.8-.3-.4-1.2-1.5-2.1-2.9-2.1-.6 0-1.2.2-1.6.5-1.1-.5-2.3-1-3.4-1.6-3.4-1.6-7-3.3-10.3-3.7-3.2-.4-5.8.2-7.9 1.8 0-.1.1-7.4 7.9-6.8.3 0 .6.1.9.1.4 1.2 1.5 2.1 2.9 2.1.7 0 1.3-.2 1.8-.6 1.5.6 3 1.4 4.5 2.2 3.3 1.7 6.7 3.4 9.9 3.9 1.8.3 4.2.4 6.6-1.3l.3-.3c0-.1 0 6.7-6.9 6.1zm.8-7.8c-2.7-.4-5.9-2-9-3.6-1.7-.9-3.5-1.7-5.2-2.5-.3-1.2-1.5-2.2-2.9-2.2-.8 0-1.4.3-2 .7-.4-.1-.7-.1-1.1-.2-3.4-.3-5.2.2-7.6 1.9 0 0-.1-7.2 7.6-6.9 3.2.1 7 2.2 10.7 4.2 4.1 2.2 7.9 4.3 11.5 4.2 1.9 0 3.6-.7 4.9-1.8.1 0-.3 7.2-6.9 6.2z"/><path fill="#CD7113" d="M31.4 25.8c.1.3.2.6.2 1 0 .9-.4 1.7-1 2.3.6.1 1.2.2 1.9.3.3-.5.5-1.1.5-1.7 0-.6-.2-1.1-.5-1.6-.3-.2-.7-.3-1.1-.3z"/><path fill="#D17519" d="M19.8 12.2c.1.3.1.5.1.8 0 1-.5 1.9-1.2 2.4.5.2 1 .5 1.6.7.7-.6 1.1-1.4 1.1-2.3 0-.4-.1-.7-.2-1.1-.5 0-.9-.2-1.4-.5 0 .1 0 .1 0 0z"/></g></svg>