<svg xmlns="http://www.w3.org/2000/svg" width="200" height="46.666" viewBox="0 0 200 46.666"><path fill="#333" d="M51.38 27.83c.32.504.74.906 1.26 1.2.52.3 1.106.513 1.76.638.652.13 1.326.195 2.02.195.533 0 1.092-.037 1.68-.117.586-.078 1.127-.217 1.62-.425.494-.204.9-.508 1.22-.907.32-.4.48-.91.48-1.53 0-.852-.334-1.497-1-1.936-.667-.437-1.5-.793-2.5-1.064-1-.27-2.087-.517-3.26-.735-1.173-.22-2.26-.53-3.26-.93s-1.833-.96-2.5-1.684c-.666-.722-1-1.728-1-3.02 0-1.006.232-1.87.7-2.593.466-.722 1.066-1.31 1.8-1.76.732-.452 1.56-.788 2.48-1.006.92-.22 1.833-.33 2.738-.33 1.174 0 2.254.097 3.24.29.987.194 1.86.53 2.62 1.007.76.478 1.366 1.123 1.82 1.937.453.812.72 1.826.798 3.04h-3.398c-.055-.646-.227-1.182-.52-1.606-.294-.425-.668-.767-1.12-1.028-.455-.255-.954-.444-1.5-.56-.547-.116-1.1-.174-1.66-.174-.507 0-1.02.04-1.54.117-.52.077-.993.212-1.42.407-.427.192-.773.45-1.04.773-.267.322-.4.74-.4 1.257 0 .57.206 1.04.62 1.413.413.375.94.685 1.58.93.64.246 1.36.453 2.16.62.8.167 1.6.34 2.4.52.854.183 1.686.4 2.5.66.812.257 1.533.6 2.16 1.025.626.425 1.132.962 1.52 1.607.386.645.58 1.445.58 2.4 0 1.213-.26 2.22-.78 3.02-.52.8-1.2 1.446-2.04 1.937-.84.488-1.788.832-2.84 1.025-1.053.192-2.1.288-3.14.288-1.147 0-2.24-.115-3.28-.348-1.04-.232-1.96-.613-2.76-1.145-.8-.527-1.44-1.225-1.92-2.09-.48-.865-.746-1.916-.8-3.154h3.4c.027.725.202 1.338.522 1.84zM68.98 12.288h3.398v20.016h-3.4zM86.497 12.288v2.903h-4.12V27.62c0 .387.034.697.1.93.064.233.193.413.38.542.187.13.446.213.78.25.332.038.767.058 1.3.058h1.56v2.906h-2.6c-.88 0-1.633-.06-2.26-.176-.627-.115-1.133-.33-1.52-.637-.387-.31-.674-.75-.86-1.317-.187-.566-.28-1.315-.28-2.245V15.19h-3.52V12.29h3.52v-6h3.4v6h4.12zM104.895 31.022c-1.545 1.137-3.495 1.705-5.84 1.705-1.654 0-3.086-.258-4.298-.773-1.214-.516-2.234-1.242-3.06-2.168-.827-.93-1.447-2.038-1.862-3.33-.413-1.29-.645-2.697-.7-4.22 0-1.52.24-2.915.72-4.18.482-1.264 1.154-2.362 2.022-3.29.864-.93 1.892-1.652 3.08-2.17 1.186-.515 2.483-.773 3.897-.773 1.84 0 3.367.367 4.58 1.103 1.214.737 2.186 1.67 2.92 2.807.733 1.135 1.24 2.375 1.52 3.716.28 1.34.395 2.618.342 3.832h-15.48c-.027.878.08 1.71.32 2.497.24.787.625 1.485 1.16 2.09.533.608 1.212 1.09 2.04 1.45.824.365 1.798.543 2.918.543 1.44 0 2.62-.32 3.54-.967.92-.644 1.526-1.625 1.82-2.942h3.36c-.454 2.245-1.455 3.936-3 5.068zm-.82-12.85c-.308-.695-.72-1.296-1.24-1.8-.52-.503-1.134-.903-1.842-1.2-.705-.297-1.484-.445-2.34-.445-.88 0-1.673.148-2.378.445-.707.296-1.313.702-1.82 1.22-.505.516-.907 1.116-1.2 1.8-.292.683-.466 1.41-.52 2.185h11.88c-.055-.774-.235-1.507-.54-2.204zM115.253 12.288v2.71h.08c.56-1.11 1.44-1.916 2.64-2.42 1.2-.504 2.52-.754 3.96-.754 1.6 0 2.993.284 4.18.852 1.187.566 2.174 1.335 2.96 2.302.786.97 1.38 2.085 1.78 3.35.4 1.264.6 2.605.6 4.025 0 1.42-.194 2.76-.58 4.026-.387 1.264-.974 2.367-1.76 3.308-.786.94-1.774 1.686-2.96 2.227-1.187.54-2.566.812-4.14.812-.507 0-1.075-.053-1.7-.156-.628-.1-1.247-.267-1.86-.5-.612-.233-1.193-.55-1.74-.95-.546-.398-1.006-.895-1.38-1.488h-.08V39.93h-3.4V12.287h3.4zm12.22 7.103c-.253-.89-.64-1.68-1.16-2.378-.52-.697-1.188-1.252-2-1.665-.814-.413-1.767-.62-2.86-.62-1.146 0-2.12.22-2.92.66-.8.438-1.454 1.013-1.96 1.72-.507.712-.872 1.52-1.1 2.42-.227.903-.34 1.82-.34 2.75 0 .98.12 1.927.36 2.844.24.918.62 1.725 1.14 2.42.52.696 1.192 1.258 2.02 1.684.825.427 1.827.638 3 .638 1.174 0 2.153-.22 2.94-.658.785-.438 1.42-1.018 1.9-1.742.48-.722.824-1.546 1.04-2.477.21-.93.318-1.883.318-2.866.002-.928-.125-1.84-.376-2.73zM134.97 18.192c.43-1.278 1.067-2.387 1.92-3.33.854-.94 1.906-1.682 3.163-2.226 1.25-.54 2.69-.812 4.318-.812 1.653 0 3.1.27 4.338.812 1.243.543 2.287 1.285 3.143 2.226.852.943 1.492 2.052 1.92 3.33.426 1.278.64 2.652.64 4.122 0 1.47-.214 2.84-.64 4.104-.428 1.265-1.068 2.368-1.92 3.312-.854.94-1.898 1.676-3.142 2.207-1.237.527-2.685.79-4.337.79-1.628 0-3.067-.263-4.317-.79-1.257-.53-2.31-1.266-3.163-2.207-.853-.943-1.49-2.046-1.92-3.312-.427-1.265-.638-2.633-.638-4.104 0-1.47.21-2.844.638-4.122zm3.46 7.355c.334.942.794 1.728 1.38 2.36.588.633 1.275 1.117 2.063 1.453.785.334 1.617.502 2.5.502.877 0 1.71-.168 2.498-.502.788-.336 1.474-.82 2.06-1.453.587-.632 1.046-1.418 1.383-2.36.33-.942.498-2.02.498-3.234 0-1.212-.166-2.29-.497-3.232-.337-.94-.796-1.735-1.382-2.378-.586-.645-1.27-1.136-2.06-1.472-.786-.335-1.62-.503-2.498-.503-.882 0-1.714.167-2.5.503-.786.336-1.474.827-2.06 1.472-.588.644-1.048 1.44-1.38 2.38-.333.94-.502 2.02-.502 3.23 0 1.216.17 2.293.5 3.235zM158.61 12.288h3.4v20.016h-3.4zM170.488 12.288v3.173h.08c1.412-2.423 3.65-3.636 6.72-3.636 1.36 0 2.494.182 3.397.542.906.362 1.643.864 2.2 1.51.56.646.955 1.414 1.183 2.304.227.89.338 1.877.338 2.96v13.165h-3.4V18.75c0-1.237-.373-2.217-1.12-2.94-.746-.722-1.772-1.083-3.078-1.083-1.04 0-1.94.154-2.702.464-.76.313-1.39.75-1.898 1.318-.505.568-.89 1.232-1.14 1.993-.252.763-.38 1.595-.38 2.5v11.304h-3.398V12.288h3.198zM198.364 12.288v2.903h-4.12V27.62c0 .387.034.697.1.93.068.233.196.413.38.542.187.13.448.213.783.25.33.038.765.058 1.296.058h1.562v2.906h-2.6c-.878 0-1.634-.06-2.26-.176-.627-.115-1.134-.33-1.52-.637-.387-.31-.674-.75-.86-1.317-.187-.566-.28-1.315-.28-2.245V15.19h-3.52V12.29h3.52v-6h3.4v6h4.12z"/><path fill="#FCA13F" d="M1.88 19.96l3.136 3.043 9.915 9.253 4.273-4.124c.392-.536.366-1.267-.082-1.775l-3.902-3.423.014-.002-4.207-4.08c-.492-.56-.48-1.39.04-1.93L22.388 5.99 17.244 1 5.03 12.795 1.887 15.83c-1.18 1.14-1.183 2.99-.006 4.13z"/><path fill="#248AAF" d="M35.642 25.25l-3.134-3.044-9.916-9.256-4.272 4.125c-.39.535-.365 1.265.083 1.776l3.9 3.424h-.013l4.208 4.08c.492.56.48 1.393-.043 1.934l-11.317 10.93 5.143 4.992 12.214-11.797 3.145-3.035c1.177-1.14 1.18-2.99.002-4.13z"/><ellipse cx="70.678" cy="8.205" fill="#333" rx="1.981" ry="1.918"/><ellipse cx="160.31" cy="8.205" fill="#333" rx="1.98" ry="1.918"/></svg>