<?xml version="1.0" encoding="UTF-8" standalone="no"?>
<!-- Generator: Adobe Illustrator 17.0.0, SVG Export Plug-In . SVG Version: 6.00 Build 0)  -->

<svg
   xmlns:dc="http://purl.org/dc/elements/1.1/"
   xmlns:cc="http://creativecommons.org/ns#"
   xmlns:rdf="http://www.w3.org/1999/02/22-rdf-syntax-ns#"
   xmlns:svg="http://www.w3.org/2000/svg"
   xmlns="http://www.w3.org/2000/svg"
   xmlns:sodipodi="http://sodipodi.sourceforge.net/DTD/sodipodi-0.dtd"
   xmlns:inkscape="http://www.inkscape.org/namespaces/inkscape"
   version="1.1"
   id="Layer_1"
   x="0px"
   y="0px"
   width="342.46701"
   height="100.16905"
   viewBox="0 0 342.46701 100.16905"
   enable-background="new 0 0 792 612"
   xml:space="preserve"
   inkscape:version="0.91 r13725"
   sodipodi:docname="teched.svg"><metadata
     id="metadata59"><rdf:RDF><cc:Work
         rdf:about=""><dc:format>image/svg+xml</dc:format><dc:type
           rdf:resource="http://purl.org/dc/dcmitype/StillImage" /><dc:title></dc:title></cc:Work></rdf:RDF></metadata><defs
     id="defs57" /><sodipodi:namedview
     pagecolor="#ffffff"
     bordercolor="#666666"
     borderopacity="1"
     objecttolerance="10"
     gridtolerance="10"
     guidetolerance="10"
     inkscape:pageopacity="0"
     inkscape:pageshadow="2"
     inkscape:window-width="640"
     inkscape:window-height="480"
     id="namedview55"
     showgrid="false"
     fit-margin-top="0"
     fit-margin-left="0"
     fit-margin-right="0"
     fit-margin-bottom="0"
     inkscape:zoom="0.375"
     inkscape:cx="171.29201"
     inkscape:cy="50.90205"
     inkscape:window-x="63"
     inkscape:window-y="34"
     inkscape:window-maximized="0"
     inkscape:current-layer="Layer_1" /><path
     d="m 321.16601,22.275 c 1.772,-5.897 2.509,-12.829 4.26,-18.745 l 17.041,0 c -4.6,20.109 -9.577,39.56 -14.168,59.678 -5.329,-0.428 -11.135,-0.481 -16.454,0 0.487,-2.467 0.994,-4.384 1.481,-6.851 -1.274,0.664 -2.113,1.828 -3.238,2.726 -4.232,3.383 -9.727,5.611 -18.174,5.143 -9.311,-0.515 -15.18,-4.353 -16.76,-11.448 -1.694,-7.604 1.019,-16.417 4.601,-22.153 3.18,-5.094 8.526,-10.322 14.997,-12.781 7.749,-2.945 21.916,-3.954 26.414,4.431 z m -12.252,-0.085 c -2.972,0.418 -5.204,1.918 -6.835,3.323 -2.604,2.244 -4.727,5.799 -6.476,10.566 -1.499,4.086 -3.301,8.593 -2.726,14.485 0.67,6.869 7.53,9.622 13.804,6.135 5.893,-3.277 9.321,-10.869 11.076,-18.064 1.562,-6.397 1.478,-13.262 -2.886,-15.688 -1.731,-0.964 -4.459,-0.968 -5.957,-0.757 z"
     id="path3"
     inkscape:connector-curvature="0"
     style="clip-rule:evenodd;fill:#004a90;fill-rule:evenodd" /><path
     d="M 5.2650074,0 C 26.744007,0 48.224007,0 69.704007,0 c -1.213,3.728 -3.695,6.197 -3.599,11.224 -7.193,-0.572 -14.365,-1.164 -21.936,-1.36 -4.819,17.667 -9.484,35.21 -14.023,53.155 -6.224,-0.539 -12.4,-0.596 -18.607,0 4.442,-17.927 9.04,-35.181 13.607,-52.984 -7.812,-0.212 -16.0729996,0.602 -23.6509996,1.19 1.393,-3.323 2.567,-6.863 3.428,-10.714 -0.009,-0.291 0.126,-0.441 0.342,-0.511 z"
     id="path5"
     inkscape:connector-curvature="0"
     style="clip-rule:evenodd;fill:#004a90;fill-rule:evenodd" /><path
     d="m 166.52201,3.53 c 5.664,0 11.328,0 16.992,0 -1.629,6.489 -3.266,12.971 -4.928,19.427 4.622,-2.306 11.259,-6.445 18.69,-6.987 8.167,-0.596 17.583,2.658 18.011,10.566 0.174,3.207 -0.924,6.627 -1.699,9.713 -2.212,8.807 -4.679,18.345 -6.889,26.96 -5.578,-0.57 -11.408,-0.573 -16.992,0 1.655,-7.422 3.731,-15.597 5.7,-23.551 1.639,-6.619 3.367,-15.426 -5.038,-15.86 -12.839,-0.662 -14.956,11.962 -17.561,22.165 -1.592,6.234 -3.206,12.074 -4.545,17.34 -5.648,-0.58 -11.251,-0.653 -16.905,-0.094 5.08,-20.015 9.765,-39.985 15.164,-59.679 z"
     id="path7"
     inkscape:connector-curvature="0"
     style="clip-rule:evenodd;fill:#004a90;fill-rule:evenodd" /><path
     d="m 157.38901,19.942 c -2.077,3.764 -4.685,6.934 -7.165,10.285 -0.959,0 -1.673,-0.121 -2.632,-0.121 0.3,-6.985 -4.306,-10.382 -10.971,-10.015 -11.32,0.625 -20.393,13.505 -20.655,25.461 -0.269,12.264 13.655,14.599 23.995,10.523 1.644,-0.648 4.021,-1.757 5.346,-2.513 0.6,-0.019 1.156,0.716 1.702,1.135 -0.525,1.353 -3.404,5.106 -4.727,6.048 -2.84,1.291 -7.176,2.472 -10.585,2.836 -16.125,1.722 -35.330003,-2.076 -34.174003,-18.369 1.281,-18.065 19.018003,-28.498 37.322003,-29.364 9.307,-0.44 16.074,1.164 22.544,4.094 z"
     id="path9"
     inkscape:connector-curvature="0"
     style="clip-rule:evenodd;fill:#004a90;fill-rule:evenodd" /><path
     d="m 270.56601,39.778 -35.721,0.122 c -2.426,6.657 -0.927,13.489 4.276,16.216 4.631,2.428 11.257,2.255 16.598,0.723 1.918,-0.551 3.333,-1.196 5.129,-1.669 0.672,0.84 1.312,1.707 1.301,2.365 -1.963,3.119 -3.515,3.397 -7.732,4.632 -16.42,4.811 -37.422,1.693 -38.538,-14.941 -0.618,-9.223 3.499,-17.378 9.041,-22.554 5.511,-5.147 13.902,-8.561 23.44,-9.068 9.067,-0.482 17.232,1.308 21.045,5.817 3.485,4.12 3.748,11.689 1.161,18.357 z m -15.967,-4.3 c -6.022,-0.113 -12.496,0.226 -18.235,-0.171 1.806,-6.313 5.716,-14.847 13.041,-15.46 7.904,-0.661 7.419,9.693 5.194,15.631 z"
     id="path11"
     inkscape:connector-curvature="0"
     style="clip-rule:evenodd;fill:#004a90;fill-rule:evenodd" /><path
     d="m 95.611007,39.968 -35.584,-0.083 c -2.984,6.062 -0.86,13.784 3.925,16.276 6.49,3.38 16.096,1.2 21.846,-1.356 0.666,-0.296 1.444,-1.034 2.175,-1.242 0.488,-0.138 1.023,0.248 1.513,0.567 -0.284,1.229 -3.215,4.527 -4.255,5.661 -2.27,1.431 -5.932,2.326 -8.82,2.982 -16.052,3.639 -34.536,0.021 -35.581,-15.451 -0.642,-9.518 3.721,-17.784 9.127,-22.526 6.063,-5.318 13.869,-8.483 23.382,-8.986 8.909,-0.47 17.12,1.216 20.992,5.764 3.468,4.073 3.455,11.68 1.28,18.394 z m -21.521,-19.841 c -7.324,0.613 -11.146,8.854 -12.951,15.167 5.739,0.396 12.212,0.058 18.234,0.17 2.224,-5.938 2.62,-15.998 -5.283,-15.337 z"
     id="path13"
     inkscape:connector-curvature="0"
     style="clip-rule:evenodd;fill:#004a90;fill-rule:evenodd" /><path
     d="m 21.343007,99.361 c -1.368,0.305 -2.832,0.533 -4.508,0.533 -6.325,0 -8.5389996,-4.292 -8.2549996,-8.357 0.439,-6.274 4.3489996,-9.144 9.4799996,-9.144 1.473,0 2.857,0.178 4.182,0.482 l 0.144,1.575 c -1.41,-0.534 -2.838,-0.838 -4.412,-0.838 -2.312,0 -7.239,0.711 -7.744,7.925 -0.2829996,4.039 1.939,7.137 6.689,7.137 1.701,0 3.249,-0.33 4.781,-0.813 l -0.357,1.5 z"
     id="path15"
     inkscape:connector-curvature="0" /><path
     d="m 29.725007,91.538 c -0.283,4.039 1.939,7.137 6.689,7.137 4.75,0 7.405,-3.098 7.688,-7.137 0.505,-7.214 -4.322,-7.925 -6.634,-7.925 -2.311,0 -7.238,0.711 -7.743,7.925 z m 16.028,0 c -0.284,4.064 -3.099,8.357 -9.423,8.357 -6.325,0 -8.539,-4.292 -8.254,-8.357 0.439,-6.274 4.349,-9.144 9.48,-9.144 5.129,0 8.636,2.87 8.197,9.144 z"
     id="path17"
     inkscape:connector-curvature="0" /><polygon
     points="290.174,354.672 291.243,339.406 292.767,339.406 291.581,356.348 289.371,356.348 279.56,341.209 279.509,341.209 278.449,356.348 276.925,356.348 278.111,339.406 280.27,339.406 290.124,354.672 "
     id="polygon19"
     transform="translate(-224.70799,-256.733)" /><path
     d="m 74.173007,97.557 c 1.377,0.661 2.818,1.118 4.393,1.118 1.727,0 3.478,-0.711 3.624,-2.794 0.119,-1.701 -2.204,-3.353 -3.786,-4.699 -1.509,-1.295 -3.522,-2.667 -3.364,-4.927 0.206,-2.946 2.886,-3.861 5.325,-3.861 1.067,0 2.147,0.178 3.148,0.381 l 0.099,1.499 c -1.091,-0.381 -2.19,-0.66 -3.409,-0.66 -1.626,0 -3.38,0.761 -3.515,2.692 -0.114,1.626 1.724,2.946 3.739,4.648 1.488,1.245 3.572,2.667 3.418,4.877 -0.215,3.073 -2.723,4.064 -5.416,4.064 -1.498,0 -2.796,-0.33 -4.214,-0.762 l -0.042,-1.576 z"
     id="path21"
     inkscape:connector-curvature="0" /><path
     d="m 92.150007,93.798 c -0.212,3.022 1.336,4.877 5.069,4.877 3.734003,0 5.540003,-1.854 5.752003,-4.877 l 0.779,-11.125 1.651,0 -0.82,11.709 c -0.085,1.219 -0.844,5.512 -7.448003,5.512 -6.604,0 -6.76,-4.292 -6.675,-5.512 l 0.82,-11.709 1.651,0 -0.779,11.125 z"
     id="path23"
     inkscape:connector-curvature="0" /><polygon
     points="346.832,355.129 346.747,356.348 336.841,356.348 338.027,339.406 339.677,339.406 338.577,355.129 "
     id="polygon25"
     transform="translate(-224.70799,-256.733)" /><polygon
     points="364.611,340.625 359.328,340.625 358.227,356.348 356.575,356.348 357.676,340.625 352.393,340.625 352.478,339.406 364.696,339.406 "
     id="polygon27"
     transform="translate(-224.70799,-256.733)" /><polygon
     points="369.417,356.348 370.604,339.406 372.255,339.406 371.069,356.348 "
     id="polygon29"
     transform="translate(-224.70799,-256.733)" /><polygon
     points="392.437,354.672 393.506,339.406 395.03,339.406 393.844,356.348 391.634,356.348 381.823,341.209 381.772,341.209 380.712,356.348 379.188,356.348 380.374,339.406 382.533,339.406 392.387,354.672 "
     id="polygon31"
     transform="translate(-224.70799,-256.733)" /><path
     d="m 192.12601,90.191 -0.619,8.84 c -2.039,0.457 -4.15,0.864 -6.919,0.864 -6.325,0 -8.539,-4.292 -8.255,-8.357 0.439,-6.274 4.349,-9.144 9.48,-9.144 2.463,0 4.224,0.254 5.897,0.66 l 0.142,1.601 c -1.76,-0.61 -3.56,-1.042 -6.125,-1.042 -2.312,0 -7.239,0.711 -7.744,7.925 -0.283,4.039 1.939,7.137 6.689,7.137 2.184,0 3.805,-0.305 5.26,-0.762 l 0.455,-6.503 -4.115,0 0.085,-1.219 5.769,0 z"
     id="path33"
     inkscape:connector-curvature="0" /><path
     d="m 207.77001,97.557 c 1.377,0.661 2.818,1.118 4.394,1.118 1.727,0 3.478,-0.711 3.624,-2.794 0.119,-1.701 -2.204,-3.353 -3.786,-4.699 -1.509,-1.295 -3.522,-2.667 -3.363,-4.927 0.206,-2.946 2.886,-3.861 5.325,-3.861 1.067,0 2.147,0.178 3.148,0.381 l 0.099,1.499 c -1.091,-0.381 -2.19,-0.66 -3.409,-0.66 -1.626,0 -3.38,0.761 -3.515,2.692 -0.114,1.626 1.724,2.946 3.739,4.648 1.488,1.245 3.572,2.667 3.417,4.877 -0.215,3.073 -2.723,4.064 -5.416,4.064 -1.499,0 -2.796,-0.33 -4.214,-0.762 l -0.043,-1.576 z"
     id="path35"
     inkscape:connector-curvature="0" /><polygon
     points="450.361,355.129 458.998,355.129 458.913,356.348 448.626,356.348 449.812,339.406 460.099,339.406 460.014,340.625 451.377,340.625 450.923,347.102 458.823,347.102 458.738,348.321 450.838,348.321 "
     id="polygon37"
     transform="translate(-224.70799,-256.733)" /><path
     d="m 242.93101,82.673 5.868,0 c 3.454,0 4.575,2.133 4.456,3.835 -0.221,3.15 -2.093,4.877 -5.833,4.952 l 5.271,8.154 -2.057,0 -5.529,-9.195 c 0.553,0.076 1.13,0.178 1.714,0.178 3.76,0 4.662,-2.362 4.765,-3.836 0.156,-2.235 -1.603,-2.87 -3.127,-2.87 l -3.963,0 -1.101,15.723 -1.65,0 1.186,-16.941 z"
     id="path39"
     inkscape:connector-curvature="0" /><polygon
     points="490.321,355.129 498.51,339.406 500.261,339.406 491.177,356.348 489.094,356.348 483.625,339.406 485.376,339.406 490.271,355.129 "
     id="polygon41"
     transform="translate(-224.70799,-256.733)" /><path
     d="m 301.50201,99.361 c -1.368,0.305 -2.832,0.533 -4.507,0.533 -6.325,0 -8.539,-4.292 -8.254,-8.357 0.439,-6.274 4.348,-9.144 9.48,-9.144 1.473,0 2.858,0.178 4.183,0.482 l 0.142,1.575 c -1.41,-0.534 -2.837,-0.838 -4.411,-0.838 -2.312,0 -7.239,0.711 -7.744,7.925 -0.283,4.039 1.939,7.137 6.69,7.137 1.702,0 3.25,-0.33 4.781,-0.813 l -0.36,1.5 z"
     id="path43"
     inkscape:connector-curvature="0" /><polygon
     points="535.291,355.129 543.928,355.129 543.842,356.348 533.555,356.348 534.741,339.406 545.028,339.406 544.943,340.625 536.306,340.625 535.852,347.102 543.753,347.102 543.668,348.321 535.767,348.321 "
     id="polygon45"
     transform="translate(-224.70799,-256.733)" /><path
     d="m 326.03401,97.557 c 1.377,0.661 2.817,1.118 4.393,1.118 1.727,0 3.479,-0.711 3.625,-2.794 0.119,-1.701 -2.204,-3.353 -3.787,-4.699 -1.51,-1.295 -3.522,-2.667 -3.363,-4.927 0.206,-2.946 2.886,-3.861 5.325,-3.861 1.067,0 2.147,0.178 3.148,0.381 l 0.098,1.499 c -1.09,-0.381 -2.188,-0.66 -3.408,-0.66 -1.626,0 -3.381,0.761 -3.516,2.692 -0.114,1.626 1.726,2.946 3.739,4.648 1.489,1.245 3.573,2.667 3.419,4.877 -0.215,3.073 -2.723,4.064 -5.416,4.064 -1.497,0 -2.796,-0.33 -4.213,-0.762 l -0.044,-1.576 z"
     id="path47"
     inkscape:connector-curvature="0" /><polygon
     points="504.997,356.348 506.183,339.406 507.834,339.406 506.648,356.348 "
     id="polygon49"
     transform="translate(-224.70799,-256.733)" /><path
     stroke-miterlimit="3.8636"
     d="m 281.47501,82.673 1.651,0 -1.186,16.942 -1.651,0 1.186,-16.942 z M 21.343007,99.361 c -1.368,0.305 -2.832,0.533 -4.508,0.533 -6.325,0 -8.5389996,-4.292 -8.2549996,-8.357 0.439,-6.274 4.3489996,-9.144 9.4799996,-9.144 1.473,0 2.857,0.178 4.182,0.482 l 0.144,1.575 c -1.41,-0.534 -2.838,-0.838 -4.412,-0.838 -2.312,0 -7.239,0.711 -7.744,7.925 -0.2829996,4.039 1.939,7.137 6.689,7.137 1.701,0 3.249,-0.33 4.781,-0.813 l -0.357,1.5 z m 24.41,-7.823 c -0.284,4.064 -3.099,8.357 -9.423,8.357 -6.325,0 -8.539,-4.292 -8.254,-8.357 0.439,-6.274 4.349,-9.144 9.48,-9.144 5.129,0 8.636,2.87 8.197,9.144 z m -16.028,0 c -0.283,4.039 1.939,7.137 6.689,7.137 4.75,0 7.405,-3.098 7.688,-7.137 0.505,-7.214 -4.322,-7.925 -6.634,-7.925 -2.311,0 -7.238,0.711 -7.743,7.925 z m 23.678,-8.865 2.159,0 9.854,15.266 1.119,-15.266 1.524,0 -1.186,16.942 -2.21,0 -9.812,-15.139 -1.111,15.139 -1.524,0 1.187,-16.942 z m 20.77,14.884 c 1.377,0.661 2.818,1.118 4.393,1.118 1.727,0 3.478,-0.711 3.624,-2.794 0.119,-1.701 -2.204,-3.353 -3.786,-4.699 -1.509,-1.295 -3.522,-2.667 -3.364,-4.927 0.206,-2.946 2.886,-3.861 5.325,-3.861 1.067,0 2.147,0.178 3.148,0.381 l 0.099,1.499 c -1.091,-0.381 -2.19,-0.66 -3.409,-0.66 -1.626,0 -3.38,0.761 -3.515,2.692 -0.114,1.626 1.724,2.946 3.739,4.648 1.488,1.245 3.572,2.667 3.418,4.877 -0.215,3.073 -2.723,4.064 -5.416,4.064 -1.498,0 -2.796,-0.33 -4.214,-0.762 l -0.042,-1.576 z m 17.977,-3.759 c -0.212,3.022 1.336,4.877 5.069,4.877 3.734003,0 5.540003,-1.854 5.752003,-4.877 l 0.779,-11.125 1.651,0 -0.82,11.709 c -0.085,1.219 -0.844,5.512 -7.448003,5.512 -6.604,0 -6.76,-4.292 -6.675,-5.512 l 0.82,-11.709 1.651,0 -0.779,11.125 z m 21.169003,-11.125 1.65,0 -1.101,15.723 8.255,0 -0.085,1.219 -9.906,0 1.187,-16.942 z m 14.366,1.219 0.085,-1.219 12.218,0 -0.085,1.219 -5.283,0 -1.101,15.723 -1.652,0 1.101,-15.723 -5.283,0 z m 18.211,-1.219 1.651,0 -1.186,16.942 -1.651,0 1.186,-16.942 z m 9.77,0 2.159,0 9.854,15.266 1.119,-15.266 1.524,0 -1.186,16.942 -2.21,0 -9.812,-15.139 -1.111,15.139 -1.524,0 1.187,-16.942 z m 36.46,7.518 -0.619,8.84 c -2.039,0.457 -4.15,0.864 -6.919,0.864 -6.325,0 -8.539,-4.292 -8.255,-8.357 0.439,-6.274 4.349,-9.144 9.48,-9.144 2.463,0 4.224,0.254 5.897,0.66 l 0.142,1.601 c -1.76,-0.61 -3.56,-1.042 -6.125,-1.042 -2.312,0 -7.239,0.711 -7.744,7.925 -0.283,4.039 1.939,7.137 6.689,7.137 2.184,0 3.805,-0.305 5.26,-0.762 l 0.455,-6.503 -4.115,0 0.085,-1.219 5.769,0 z m 15.644,7.366 c 1.377,0.661 2.818,1.118 4.394,1.118 1.727,0 3.478,-0.711 3.624,-2.794 0.119,-1.701 -2.204,-3.353 -3.786,-4.699 -1.509,-1.295 -3.522,-2.667 -3.363,-4.927 0.206,-2.946 2.886,-3.861 5.325,-3.861 1.067,0 2.147,0.178 3.148,0.381 l 0.099,1.499 c -1.091,-0.381 -2.19,-0.66 -3.409,-0.66 -1.626,0 -3.38,0.761 -3.515,2.692 -0.114,1.626 1.724,2.946 3.739,4.648 1.488,1.245 3.572,2.667 3.417,4.877 -0.215,3.073 -2.723,4.064 -5.416,4.064 -1.499,0 -2.796,-0.33 -4.214,-0.762 l -0.043,-1.576 z m 26.345,-7.188 -0.085,1.219 -7.9,0 -0.477,6.808 8.637,0 -0.085,1.219 -10.287,0 1.186,-16.942 10.287,0 -0.085,1.219 -8.637,0 -0.453,6.477 7.899,0 z m 8.816,-7.696 5.868,0 c 3.454,0 4.575,2.133 4.456,3.835 -0.221,3.15 -2.093,4.877 -5.833,4.952 l 5.271,8.154 -2.057,0 -5.529,-9.195 c 0.553,0.076 1.13,0.178 1.714,0.178 3.76,0 4.662,-2.362 4.765,-3.836 0.156,-2.235 -1.603,-2.87 -3.127,-2.87 l -3.963,0 -1.101,15.723 -1.65,0 1.186,-16.941 z m 15.986,0 1.752,0 4.895,15.723 8.238,-15.723 1.752,0 -9.085,16.942 -2.083,0 -5.469,-16.942 z m 42.585,16.688 c -1.368,0.305 -2.832,0.533 -4.507,0.533 -6.325,0 -8.539,-4.292 -8.254,-8.357 0.439,-6.274 4.348,-9.144 9.48,-9.144 1.473,0 2.858,0.178 4.183,0.482 l 0.142,1.575 c -1.41,-0.534 -2.837,-0.838 -4.411,-0.838 -2.312,0 -7.239,0.711 -7.744,7.925 -0.283,4.039 1.939,7.137 6.69,7.137 1.702,0 3.25,-0.33 4.781,-0.813 l -0.36,1.5 z m 17.543,-8.992 -0.085,1.219 -7.901,0 -0.476,6.808 8.637,0 -0.085,1.219 -10.287,0 1.186,-16.942 10.287,0 -0.085,1.219 -8.637,0 -0.453,6.477 7.899,0 z m 6.989,7.188 c 1.377,0.661 2.817,1.118 4.393,1.118 1.727,0 3.479,-0.711 3.625,-2.794 0.119,-1.701 -2.204,-3.353 -3.787,-4.699 -1.51,-1.295 -3.522,-2.667 -3.363,-4.927 0.206,-2.946 2.886,-3.861 5.325,-3.861 1.067,0 2.147,0.178 3.148,0.381 l 0.098,1.499 c -1.09,-0.381 -2.188,-0.66 -3.408,-0.66 -1.626,0 -3.381,0.761 -3.516,2.692 -0.114,1.626 1.726,2.946 3.739,4.648 1.489,1.245 3.573,2.667 3.419,4.877 -0.215,3.073 -2.723,4.064 -5.416,4.064 -1.497,0 -2.796,-0.33 -4.213,-0.762 l -0.044,-1.576 z"
     id="path51"
     inkscape:connector-curvature="0"
     style="fill:none;stroke:#000000;stroke-width:0.54809999;stroke-miterlimit:3.86360002" /><line
     stroke-miterlimit="3.8636"
     x1="0"
     y1="75.619995"
     x2="341.90198"
     y2="75.619995"
     id="line53"
     style="fill:none;stroke:#000000;stroke-width:1.93429995;stroke-miterlimit:3.86360002" /></svg>